<svg width="281" height="247" viewBox="0 0 281 247" fill="none" xmlns="http://www.w3.org/2000/svg">
<g filter="url(#filter0_f_12_805)">
<path d="M26.3737 234.153C24.0457 234.148 21.7841 233.377 19.9381 231.959C18.0922 230.54 16.7645 228.554 16.1602 226.306C15.5558 224.057 15.7084 221.673 16.5944 219.52C17.4803 217.367 19.0504 215.566 21.0621 214.394L165.678 130.897C168.113 129.491 171.007 129.111 173.723 129.839C176.44 130.567 178.755 132.345 180.161 134.78C181.566 137.216 181.947 140.11 181.218 142.826C180.49 145.542 178.713 147.857 176.277 149.263L31.638 232.737C30.0393 233.666 28.2228 234.155 26.3737 234.153Z" fill="#4F4D4D"/>
<path d="M93.5349 235.999C91.207 235.994 88.9454 235.222 87.0994 233.804C85.2534 232.386 83.9258 230.399 83.3214 228.151C82.7171 225.903 82.8697 223.518 83.7556 221.365C84.6416 219.212 86.2117 217.411 88.2234 216.24L153.213 178.705C154.42 177.947 155.766 177.441 157.173 177.216C158.58 176.991 160.017 177.052 161.4 177.395C162.782 177.738 164.082 178.356 165.22 179.212C166.358 180.069 167.312 181.146 168.025 182.379C168.738 183.613 169.195 184.977 169.368 186.391C169.542 187.805 169.429 189.239 169.035 190.608C168.642 191.977 167.977 193.253 167.08 194.36C166.182 195.466 165.071 196.38 163.813 197.047L98.8229 234.582C97.2159 235.512 95.3916 236.001 93.5349 235.999Z" fill="#4F4D4D"/>
<path d="M98.6336 111.136C96.2981 111.14 94.0267 110.373 92.1723 108.953C90.3178 107.533 88.9842 105.541 88.3786 103.285C87.7729 101.03 87.9292 98.6373 88.8232 96.4796C89.7171 94.322 91.2987 92.52 93.3221 91.3537L131.636 69.234C132.842 68.5381 134.173 68.0864 135.554 67.9049C136.934 67.7234 138.337 67.8156 139.682 68.1762C141.027 68.5368 142.287 69.1588 143.392 70.0066C144.496 70.8544 145.423 71.9114 146.119 73.1174C146.815 74.3233 147.266 75.6545 147.448 77.035C147.629 78.4155 147.537 79.8182 147.177 81.163C146.816 82.5079 146.194 83.7686 145.346 84.873C144.499 85.9775 143.441 86.9042 142.236 87.6002L103.922 109.72C102.312 110.643 100.489 111.131 98.6336 111.136Z" fill="#4F4D4D"/>
<path d="M142.945 126.601C140.607 126.615 138.33 125.855 136.47 124.438C134.61 123.022 133.272 121.029 132.665 118.771C132.059 116.513 132.217 114.118 133.116 111.959C134.014 109.801 135.603 108.002 137.633 106.842L176.325 84.4863C178.76 83.0807 181.654 82.7002 184.37 83.4284C187.087 84.1567 189.402 85.9341 190.808 88.3696C192.213 90.8051 192.594 93.6992 191.865 96.4152C191.137 99.1313 189.36 101.447 186.924 102.852L148.233 125.184C146.626 126.115 144.801 126.603 142.945 126.601Z" fill="#4F4D4D"/>
<path d="M63.036 172.752C60.7005 172.756 58.4291 171.989 56.5746 170.569C54.7202 169.15 53.3865 167.157 52.7809 164.901C52.1753 162.646 52.3316 160.253 53.2256 158.096C54.1195 155.938 55.701 154.136 57.7244 152.97L108.621 123.579C111.052 122.252 113.905 121.929 116.571 122.679C119.237 123.429 121.504 125.193 122.886 127.593C124.268 129.993 124.655 132.839 123.966 135.521C123.277 138.203 121.565 140.509 119.197 141.945L68.3239 171.336C66.7128 172.256 64.8912 172.744 63.036 172.752Z" fill="#4F4D4D"/>
<path d="M219.573 234.531C217.711 234.531 215.881 234.039 214.269 233.107C212.657 232.174 211.319 230.834 210.39 229.22L179.111 175.066C177.705 172.63 177.325 169.736 178.053 167.02C178.781 164.304 180.559 161.988 182.994 160.583C185.43 159.177 188.324 158.797 191.04 159.525C193.756 160.253 196.071 162.031 197.477 164.466L228.732 218.62C230.137 221.057 230.519 223.951 229.793 226.668C229.067 229.385 227.293 231.703 224.861 233.115C223.25 234.035 221.428 234.523 219.573 234.531Z" fill="#4F4D4D"/>
<path d="M218.936 163.741C217.074 163.741 215.244 163.249 213.632 162.317C212.02 161.385 210.682 160.044 209.753 158.43L192.166 128.024C190.76 125.588 190.38 122.694 191.108 119.978C191.836 117.262 193.614 114.947 196.049 113.541C198.485 112.136 201.379 111.755 204.095 112.483C206.811 113.212 209.126 114.989 210.532 117.425L228.095 147.83C229.029 149.442 229.521 151.271 229.522 153.134C229.524 154.997 229.034 156.827 228.103 158.44C227.172 160.053 225.832 161.393 224.219 162.323C222.605 163.254 220.775 163.743 218.912 163.741H218.936Z" fill="#4F4D4D"/>
<path d="M166.362 72.6362C164.502 72.6404 162.673 72.1537 161.061 71.2253C159.449 70.2969 158.11 68.9595 157.179 67.3482L138.294 34.6055C137.537 33.3989 137.03 32.0521 136.805 30.6455C136.58 29.2389 136.641 27.8013 136.984 26.4187C137.327 25.0361 137.945 23.7369 138.801 22.5985C139.658 21.4602 140.735 20.5062 141.968 19.7935C143.202 19.0807 144.566 18.6239 145.98 18.4503C147.394 18.2767 148.828 18.3899 150.197 18.7831C151.567 19.1763 152.842 19.8415 153.949 20.7389C155.055 21.6363 155.969 22.7474 156.636 24.006L175.522 56.7488C176.456 58.3571 176.95 60.1834 176.952 62.0434C176.955 63.9033 176.468 65.7312 175.539 67.3426C174.61 68.9539 173.272 70.2918 171.661 71.2212C170.05 72.1506 168.222 72.6387 166.362 72.6362Z" fill="#4F4D4D"/>
<path d="M259.657 234.27C257.791 234.262 255.959 233.763 254.347 232.822C252.735 231.881 251.399 230.533 250.474 228.911L227.269 188.78C225.863 186.344 225.483 183.45 226.211 180.734C226.939 178.018 228.716 175.702 231.152 174.297C233.587 172.891 236.482 172.511 239.198 173.239C241.914 173.967 244.229 175.745 245.635 178.18L268.84 218.312C269.766 219.925 270.252 221.753 270.25 223.613C270.248 225.472 269.757 227.299 268.828 228.91C267.898 230.521 266.562 231.859 264.952 232.792C263.343 233.724 261.517 234.218 259.657 234.223V234.27Z" fill="#4F4D4D"/>
<path d="M163.837 236.116C161.502 236.12 159.23 235.353 157.376 233.933C155.521 232.513 154.188 230.521 153.582 228.265C152.976 226.01 153.133 223.617 154.027 221.46C154.921 219.302 156.502 217.5 158.526 216.334L171.344 208.945C173.769 207.659 176.597 207.364 179.235 208.122C181.872 208.879 184.113 210.63 185.486 213.006C186.859 215.382 187.257 218.198 186.597 220.862C185.936 223.525 184.268 225.828 181.944 227.287L169.125 234.7C167.514 235.62 165.692 236.108 163.837 236.116Z" fill="#4F4D4D"/>
</g>
<path d="M21.2051 226.918C18.8771 226.913 16.6155 226.142 14.7696 224.723C12.9236 223.305 11.5959 221.318 10.9916 219.07C10.3872 216.822 10.5398 214.437 11.4258 212.284C12.3118 210.132 13.8818 208.33 15.8935 207.159L160.509 123.661C162.945 122.256 165.839 121.875 168.555 122.603C171.271 123.332 173.586 125.109 174.992 127.545C176.398 129.98 176.778 132.874 176.05 135.59C175.322 138.306 173.544 140.622 171.109 142.027L26.4694 225.501C24.8707 226.431 23.0542 226.919 21.2051 226.918Z" fill="white"/>
<path d="M88.3663 228.764C86.0384 228.759 83.7768 227.987 81.9308 226.569C80.0848 225.151 78.7572 223.164 78.1528 220.916C77.5485 218.668 77.7011 216.283 78.587 214.13C79.473 211.977 81.0431 210.176 83.0548 209.005L148.045 171.47C149.251 170.712 150.598 170.206 152.005 169.981C153.411 169.756 154.849 169.817 156.231 170.16C157.614 170.503 158.913 171.121 160.051 171.977C161.19 172.834 162.144 173.911 162.857 175.144C163.569 176.377 164.026 177.742 164.2 179.156C164.373 180.57 164.26 182.004 163.867 183.373C163.474 184.742 162.808 186.018 161.911 187.125C161.014 188.231 159.903 189.145 158.644 189.812L93.6543 227.347C92.0474 228.277 90.223 228.766 88.3663 228.764Z" fill="white"/>
<path d="M93.4654 103.901C91.1299 103.905 88.8585 103.137 87.0041 101.717C85.1496 100.298 83.816 98.3053 83.2104 96.0497C82.6047 93.7941 82.761 91.4017 83.655 89.244C84.5489 87.0864 86.1305 85.2844 88.1539 84.1181L126.468 61.9984C127.674 61.3025 129.005 60.8508 130.385 60.6693C131.766 60.4878 133.169 60.58 134.514 60.9406C135.858 61.3012 137.119 61.9232 138.224 62.771C139.328 63.6188 140.255 64.6758 140.951 65.8818C141.647 67.0877 142.098 68.4189 142.28 69.7994C142.461 71.1799 142.369 72.5826 142.008 73.9274C141.648 75.2723 141.026 76.533 140.178 77.6375C139.33 78.7419 138.273 79.6686 137.067 80.3646L98.7534 102.484C97.1435 103.407 95.3211 103.895 93.4654 103.901Z" fill="white"/>
<path d="M137.776 119.366C135.438 119.38 133.161 118.62 131.301 117.203C129.442 115.786 128.104 113.793 127.497 111.536C126.89 109.278 127.048 106.883 127.947 104.724C128.846 102.566 130.434 100.766 132.464 99.6068L171.156 77.2512C173.591 75.8456 176.486 75.465 179.202 76.1933C181.918 76.9216 184.233 78.699 185.639 81.1345C187.044 83.57 187.425 86.4641 186.697 89.1801C185.968 91.8962 184.191 94.2117 181.755 95.6173L143.064 117.949C141.457 118.88 139.633 119.368 137.776 119.366Z" fill="white"/>
<path d="M57.8677 165.517C55.5322 165.521 53.2607 164.754 51.4063 163.334C49.5518 161.914 48.2182 159.922 47.6126 157.666C47.0069 155.411 47.1633 153.018 48.0572 150.86C48.9512 148.703 50.5327 146.901 52.5561 145.734L103.453 116.344C105.883 115.017 108.737 114.694 111.403 115.444C114.069 116.194 116.335 117.958 117.717 120.358C119.099 122.758 119.487 125.603 118.798 128.286C118.108 130.968 116.396 133.274 114.028 134.71L63.1556 164.101C61.5444 165.021 59.7229 165.508 57.8677 165.517Z" fill="white"/>
<path d="M214.404 227.296C212.542 227.295 210.713 226.804 209.101 225.872C207.488 224.939 206.15 223.598 205.221 221.984L173.942 167.83C172.537 165.395 172.156 162.501 172.884 159.784C173.613 157.068 175.39 154.753 177.826 153.347C180.261 151.942 183.155 151.561 185.871 152.29C188.587 153.018 190.903 154.795 192.308 157.231L223.564 211.385C224.969 213.821 225.35 216.715 224.624 219.432C223.898 222.15 222.125 224.468 219.692 225.879C218.081 226.799 216.26 227.287 214.404 227.296Z" fill="white"/>
<path d="M213.767 156.506C211.905 156.505 210.076 156.014 208.464 155.082C206.851 154.149 205.513 152.808 204.584 151.194L186.997 120.789C185.592 118.353 185.211 115.459 185.939 112.743C186.668 110.027 188.445 107.711 190.881 106.306C193.316 104.9 196.21 104.52 198.926 105.248C201.642 105.976 203.958 107.754 205.363 110.189L222.927 140.595C223.86 142.207 224.352 144.036 224.354 145.899C224.355 147.761 223.866 149.592 222.935 151.205C222.003 152.818 220.664 154.157 219.05 155.088C217.437 156.019 215.606 156.508 213.744 156.506H213.767Z" fill="white"/>
<path d="M161.194 65.4006C159.333 65.4048 157.505 64.9181 155.892 63.9897C154.28 63.0613 152.941 61.7239 152.011 60.1126L133.125 27.3699C132.368 26.1633 131.862 24.8165 131.637 23.4099C131.412 22.0033 131.473 20.5657 131.815 19.1831C132.158 17.8005 132.777 16.5013 133.633 15.3629C134.489 14.2246 135.566 13.2706 136.8 12.5579C138.033 11.8451 139.398 11.3883 140.812 11.2147C142.225 11.0412 143.66 11.1543 145.029 11.5475C146.398 11.9408 147.674 12.6059 148.78 13.5033C149.887 14.4007 150.801 15.5118 151.468 16.7704L170.353 49.5132C171.288 51.1215 171.781 52.9478 171.784 54.8078C171.787 56.6677 171.299 58.4956 170.37 60.107C169.441 61.7183 168.104 63.0562 166.493 63.9856C164.882 64.915 163.054 65.4031 161.194 65.4006Z" fill="white"/>
<path d="M254.489 227.034C252.622 227.027 250.791 226.527 249.178 225.587C247.566 224.646 246.231 223.297 245.306 221.676L222.1 181.544C220.694 179.109 220.314 176.214 221.042 173.498C221.77 170.782 223.548 168.467 225.983 167.061C228.419 165.656 231.313 165.275 234.029 166.003C236.745 166.732 239.061 168.509 240.466 170.945L263.672 211.076C264.598 212.689 265.084 214.517 265.081 216.377C265.079 218.237 264.589 220.064 263.659 221.674C262.729 223.285 261.393 224.624 259.784 225.556C258.174 226.488 256.348 226.982 254.489 226.987V227.034Z" fill="white"/>
<path d="M158.669 228.881C156.333 228.885 154.062 228.117 152.207 226.697C150.353 225.278 149.019 223.285 148.414 221.03C147.808 218.774 147.964 216.382 148.858 214.224C149.752 212.066 151.334 210.264 153.357 209.098L166.176 201.709C168.6 200.424 171.429 200.129 174.066 200.886C176.704 201.644 178.945 203.395 180.318 205.771C181.691 208.147 182.089 210.962 181.428 213.626C180.768 216.289 179.1 218.593 176.775 220.052L163.957 227.464C162.346 228.384 160.524 228.872 158.669 228.881Z" fill="white"/>
<g filter="url(#filter1_f_12_805)">
<path d="M21.2051 226.918C18.8771 226.913 16.6155 226.142 14.7696 224.723C12.9236 223.305 11.5959 221.318 10.9916 219.07C10.3872 216.822 10.5398 214.437 11.4258 212.284C12.3118 210.132 13.8818 208.33 15.8935 207.159L160.509 123.661C162.945 122.256 165.839 121.875 168.555 122.603C171.271 123.332 173.586 125.109 174.992 127.545C176.398 129.98 176.778 132.874 176.05 135.59C175.322 138.306 173.544 140.622 171.109 142.027L26.4694 225.501C24.8707 226.431 23.0542 226.919 21.2051 226.918Z" fill="white" fill-opacity="0.7"/>
<path d="M88.3663 228.764C86.0384 228.759 83.7768 227.987 81.9308 226.569C80.0848 225.151 78.7572 223.164 78.1528 220.916C77.5485 218.668 77.7011 216.283 78.587 214.13C79.473 211.977 81.0431 210.176 83.0548 209.005L148.045 171.47C149.251 170.712 150.598 170.206 152.005 169.981C153.411 169.756 154.849 169.817 156.231 170.16C157.614 170.503 158.913 171.121 160.051 171.977C161.19 172.834 162.144 173.911 162.857 175.144C163.569 176.377 164.026 177.742 164.2 179.156C164.373 180.57 164.26 182.004 163.867 183.373C163.474 184.742 162.808 186.018 161.911 187.125C161.014 188.231 159.903 189.145 158.644 189.812L93.6543 227.347C92.0474 228.277 90.223 228.766 88.3663 228.764Z" fill="white" fill-opacity="0.7"/>
<path d="M93.4654 103.901C91.1299 103.905 88.8585 103.137 87.0041 101.717C85.1496 100.298 83.816 98.3053 83.2104 96.0497C82.6047 93.7941 82.761 91.4017 83.655 89.244C84.5489 87.0864 86.1305 85.2844 88.1539 84.1181L126.468 61.9984C127.674 61.3025 129.005 60.8508 130.385 60.6693C131.766 60.4878 133.169 60.58 134.514 60.9406C135.858 61.3012 137.119 61.9232 138.224 62.771C139.328 63.6188 140.255 64.6758 140.951 65.8818C141.647 67.0877 142.098 68.4189 142.28 69.7994C142.461 71.1799 142.369 72.5826 142.008 73.9274C141.648 75.2723 141.026 76.533 140.178 77.6375C139.33 78.7419 138.273 79.6686 137.067 80.3646L98.7534 102.484C97.1435 103.407 95.3211 103.895 93.4654 103.901Z" fill="white" fill-opacity="0.7"/>
<path d="M137.776 119.366C135.438 119.38 133.161 118.62 131.301 117.203C129.442 115.786 128.104 113.793 127.497 111.536C126.89 109.278 127.048 106.883 127.947 104.724C128.846 102.566 130.434 100.766 132.464 99.6068L171.156 77.2512C173.591 75.8456 176.486 75.465 179.202 76.1933C181.918 76.9216 184.233 78.699 185.639 81.1345C187.044 83.57 187.425 86.4641 186.697 89.1801C185.968 91.8962 184.191 94.2117 181.755 95.6173L143.064 117.949C141.457 118.88 139.633 119.368 137.776 119.366Z" fill="white" fill-opacity="0.7"/>
<path d="M57.8677 165.517C55.5322 165.521 53.2607 164.754 51.4063 163.334C49.5518 161.914 48.2182 159.922 47.6126 157.666C47.0069 155.411 47.1633 153.018 48.0572 150.86C48.9512 148.703 50.5327 146.901 52.5561 145.734L103.453 116.344C105.883 115.017 108.737 114.694 111.403 115.444C114.069 116.194 116.335 117.958 117.717 120.358C119.099 122.758 119.487 125.603 118.798 128.286C118.108 130.968 116.396 133.274 114.028 134.71L63.1556 164.101C61.5444 165.021 59.7229 165.508 57.8677 165.517Z" fill="white" fill-opacity="0.7"/>
<path d="M214.404 227.296C212.542 227.295 210.713 226.804 209.101 225.872C207.488 224.939 206.15 223.598 205.221 221.984L173.942 167.83C172.537 165.395 172.156 162.501 172.884 159.784C173.613 157.068 175.39 154.753 177.826 153.347C180.261 151.942 183.155 151.561 185.871 152.29C188.587 153.018 190.903 154.795 192.308 157.231L223.564 211.385C224.969 213.821 225.35 216.715 224.624 219.432C223.898 222.15 222.125 224.468 219.692 225.879C218.081 226.799 216.26 227.287 214.404 227.296Z" fill="white" fill-opacity="0.7"/>
<path d="M213.767 156.506C211.905 156.505 210.076 156.014 208.464 155.082C206.851 154.149 205.513 152.808 204.584 151.194L186.997 120.789C185.592 118.353 185.211 115.459 185.939 112.743C186.668 110.027 188.445 107.711 190.881 106.306C193.316 104.9 196.21 104.52 198.926 105.248C201.642 105.976 203.958 107.754 205.363 110.189L222.927 140.595C223.86 142.207 224.352 144.036 224.354 145.899C224.355 147.761 223.866 149.592 222.935 151.205C222.003 152.818 220.664 154.157 219.05 155.088C217.437 156.019 215.606 156.508 213.744 156.506H213.767Z" fill="white" fill-opacity="0.7"/>
<path d="M161.194 65.4006C159.333 65.4048 157.505 64.9181 155.892 63.9897C154.28 63.0613 152.941 61.7239 152.011 60.1126L133.125 27.3699C132.368 26.1633 131.862 24.8165 131.637 23.4099C131.412 22.0033 131.473 20.5657 131.815 19.1831C132.158 17.8005 132.777 16.5013 133.633 15.3629C134.489 14.2246 135.566 13.2706 136.8 12.5579C138.033 11.8451 139.398 11.3883 140.812 11.2147C142.225 11.0412 143.66 11.1543 145.029 11.5475C146.398 11.9408 147.674 12.6059 148.78 13.5033C149.887 14.4007 150.801 15.5118 151.468 16.7704L170.353 49.5132C171.288 51.1215 171.781 52.9478 171.784 54.8078C171.787 56.6677 171.299 58.4956 170.37 60.107C169.441 61.7183 168.104 63.0562 166.493 63.9856C164.882 64.915 163.054 65.4031 161.194 65.4006Z" fill="white" fill-opacity="0.7"/>
<path d="M254.489 227.034C252.622 227.027 250.791 226.527 249.178 225.587C247.566 224.646 246.231 223.297 245.306 221.676L222.1 181.544C220.694 179.109 220.314 176.214 221.042 173.498C221.77 170.782 223.548 168.467 225.983 167.061C228.419 165.656 231.313 165.275 234.029 166.003C236.745 166.732 239.061 168.509 240.466 170.945L263.672 211.076C264.598 212.689 265.084 214.517 265.081 216.377C265.079 218.237 264.589 220.064 263.659 221.674C262.729 223.285 261.393 224.624 259.784 225.556C258.174 226.488 256.348 226.982 254.489 226.987V227.034Z" fill="white" fill-opacity="0.7"/>
<path d="M158.669 228.881C156.333 228.885 154.062 228.117 152.207 226.697C150.353 225.278 149.019 223.285 148.414 221.03C147.808 218.774 147.964 216.382 148.858 214.224C149.752 212.066 151.334 210.264 153.357 209.098L166.176 201.709C168.6 200.424 171.429 200.129 174.066 200.886C176.704 201.644 178.945 203.395 180.318 205.771C181.691 208.147 182.089 210.962 181.428 213.626C180.768 216.289 179.1 218.593 176.775 220.052L163.957 227.464C162.346 228.384 160.524 228.872 158.669 228.881Z" fill="white" fill-opacity="0.7"/>
</g>
<defs>
<filter id="filter0_f_12_805" x="5.46029" y="8.03487" width="275.126" height="238.418" filterUnits="userSpaceOnUse" color-interpolation-filters="sRGB">
<feFlood flood-opacity="0" result="BackgroundImageFix"/>
<feBlend mode="normal" in="SourceGraphic" in2="BackgroundImageFix" result="shape"/>
<feGaussianBlur stdDeviation="5.16823" result="effect1_foregroundBlur_12_805"/>
</filter>
<filter id="filter1_f_12_805" x="0.291709" y="0.799277" width="275.126" height="238.418" filterUnits="userSpaceOnUse" color-interpolation-filters="sRGB">
<feFlood flood-opacity="0" result="BackgroundImageFix"/>
<feBlend mode="normal" in="SourceGraphic" in2="BackgroundImageFix" result="shape"/>
<feGaussianBlur stdDeviation="5.16823" result="effect1_foregroundBlur_12_805"/>
</filter>
</defs>
</svg>
