<svg width="165" height="141" viewBox="0 0 165 141" fill="none" xmlns="http://www.w3.org/2000/svg">
<path d="M6.83742 139.492C5.33251 139.489 3.87052 138.99 2.67719 138.073C1.48387 137.156 0.625596 135.872 0.234918 134.419C-0.155759 132.965 -0.0571175 131.424 0.515617 130.032C1.08835 128.64 2.10332 127.476 3.40378 126.719L96.8902 72.7419C98.4646 71.8333 100.336 71.5873 102.091 72.0581C103.847 72.5289 105.344 73.6779 106.253 75.2523C107.161 76.8267 107.407 78.6976 106.936 80.4534C106.466 82.2092 105.317 83.706 103.742 84.6146L10.2405 138.576C9.20706 139.177 8.03279 139.493 6.83742 139.492Z" fill="white"/>
<path d="M50.2534 140.685C48.7485 140.682 47.2865 140.183 46.0932 139.266C44.8999 138.349 44.0416 137.065 43.6509 135.612C43.2603 134.158 43.3589 132.617 43.9316 131.225C44.5044 129.834 45.5193 128.669 46.8198 127.912L88.8322 103.647C89.6122 103.158 90.4828 102.831 91.3922 102.685C92.3015 102.54 93.2308 102.579 94.1245 102.801C95.0183 103.022 95.8582 103.422 96.5941 103.976C97.33 104.529 97.9467 105.226 98.4074 106.023C98.8682 106.82 99.1635 107.702 99.2757 108.616C99.3879 109.53 99.3147 110.457 99.0605 111.343C98.8063 112.228 98.3763 113.052 97.7962 113.768C97.2161 114.483 96.4978 115.074 95.6842 115.505L53.6718 139.769C52.633 140.371 51.4537 140.687 50.2534 140.685Z" fill="white"/>
<path d="M53.5498 59.9681C52.04 59.9707 50.5717 59.4746 49.3729 58.5568C48.174 57.6391 47.3119 56.3511 46.9204 54.8929C46.5289 53.4348 46.63 51.8882 47.2079 50.4934C47.7857 49.0986 48.8081 47.9337 50.1161 47.1797L74.8841 32.8806C75.6637 32.4307 76.5242 32.1387 77.4166 32.0214C78.3091 31.904 79.2158 31.9636 80.0852 32.1967C80.9546 32.4298 81.7695 32.8319 82.4835 33.38C83.1975 33.928 83.7966 34.6114 84.2465 35.391C84.6964 36.1705 84.9883 37.0311 85.1057 37.9235C85.223 38.8159 85.1634 39.7227 84.9303 40.592C84.6972 41.4614 84.2951 42.2764 83.7471 42.9904C83.199 43.7044 82.5157 44.3034 81.7361 44.7533L56.9682 59.0525C55.9275 59.6491 54.7494 59.9647 53.5498 59.9681Z" fill="white"/>
<path d="M82.1943 69.9646C80.683 69.974 79.2111 69.4824 78.0089 68.5666C76.8066 67.6508 75.9417 66.3624 75.5493 64.9028C75.157 63.4433 75.2593 61.8949 75.8403 60.4997C76.4214 59.1045 77.4483 57.9411 78.7607 57.1915L103.773 42.7397C105.347 41.8311 107.218 41.5851 108.974 42.0559C110.73 42.5267 112.227 43.6757 113.135 45.2501C114.044 46.8245 114.29 48.6954 113.819 50.4512C113.348 52.207 112.199 53.7038 110.625 54.6125L85.6127 69.049C84.5739 69.6503 83.3946 69.9662 82.1943 69.9646Z" fill="white"/>
<path d="M30.5376 99.7992C29.0278 99.8018 27.5595 99.3056 26.3607 98.3879C25.1618 97.4701 24.2997 96.1821 23.9082 94.724C23.5167 93.2659 23.6178 91.7192 24.1957 90.3244C24.7735 88.9297 25.7959 87.7648 27.1039 87.0108L60.0058 68.0113C61.5772 67.1534 63.4219 66.9446 65.1453 67.4295C66.8687 67.9144 68.3338 69.0546 69.2272 70.6061C70.1206 72.1576 70.3713 73.9971 69.9256 75.7311C69.4799 77.465 68.3733 78.9557 66.8425 79.8841L33.956 98.8835C32.9144 99.4782 31.7369 99.7936 30.5376 99.7992Z" fill="white"/>
<path d="M131.731 139.736C130.527 139.736 129.344 139.418 128.302 138.815C127.26 138.212 126.395 137.346 125.794 136.302L105.574 101.294C104.665 99.7201 104.419 97.8492 104.89 96.0934C105.361 94.3376 106.51 92.8407 108.084 91.9321C109.659 91.0235 111.53 90.7775 113.285 91.2483C115.041 91.7191 116.538 92.868 117.447 94.4425L137.652 129.45C138.56 131.025 138.806 132.896 138.337 134.653C137.868 136.409 136.722 137.908 135.149 138.82C134.107 139.415 132.93 139.73 131.731 139.736Z" fill="white"/>
<path d="M131.319 93.9743C130.115 93.974 128.932 93.6564 127.89 93.0536C126.848 92.4509 125.983 91.5841 125.383 90.5407L114.013 70.885C113.105 69.3106 112.859 67.4397 113.33 65.684C113.8 63.9282 114.949 62.4313 116.524 61.5227C118.098 60.614 119.969 60.3681 121.725 60.8388C123.481 61.3096 124.978 62.4586 125.886 64.0331L137.24 83.6887C137.843 84.7307 138.162 85.9133 138.162 87.1174C138.163 88.3215 137.847 89.5046 137.245 90.5475C136.643 91.5903 135.777 92.4562 134.734 93.0578C133.691 93.6594 132.508 93.9755 131.304 93.9743H131.319Z" fill="white"/>
<path d="M97.3329 35.0794C96.1302 35.0821 94.948 34.7675 93.9057 34.1673C92.8634 33.5671 91.9979 32.7026 91.3965 31.661L79.188 10.4945C78.6985 9.71455 78.3712 8.8439 78.2257 7.9346C78.0802 7.0253 78.1195 6.09599 78.3412 5.20222C78.563 4.30844 78.9626 3.46853 79.5162 2.73266C80.0698 1.99679 80.7661 1.38007 81.5634 0.919325C82.3607 0.458583 83.2427 0.163279 84.1567 0.051066C85.0707 -0.0611468 85.998 0.0120124 86.8831 0.266204C87.7681 0.520395 88.5929 0.950405 89.3081 1.53051C90.0233 2.11061 90.6142 2.82891 91.0455 3.64251L103.254 24.809C103.858 25.8487 104.177 27.0293 104.179 28.2317C104.181 29.434 103.865 30.6157 103.265 31.6573C102.664 32.699 101.8 33.5638 100.758 34.1646C99.7168 34.7655 98.5353 35.081 97.3329 35.0794Z" fill="white"/>
<path d="M157.643 139.567C156.436 139.562 155.252 139.239 154.21 138.631C153.168 138.023 152.304 137.151 151.706 136.103L136.705 110.16C135.797 108.585 135.551 106.714 136.021 104.959C136.492 103.203 137.641 101.706 139.216 100.797C140.79 99.8887 142.661 99.6427 144.417 100.114C146.173 100.584 147.669 101.733 148.578 103.308L163.579 129.251C164.178 130.293 164.492 131.475 164.49 132.677C164.489 133.88 164.172 135.061 163.571 136.102C162.97 137.143 162.106 138.008 161.066 138.611C160.025 139.214 158.845 139.533 157.643 139.536V139.567Z" fill="white"/>
<path d="M95.7002 140.76C94.1904 140.763 92.7221 140.267 91.5233 139.349C90.3245 138.431 89.4623 137.143 89.0708 135.685C88.6793 134.227 88.7803 132.68 89.3582 131.286C89.9361 129.891 90.9585 128.726 92.2665 127.972L100.553 123.195C102.12 122.364 103.949 122.174 105.654 122.663C107.359 123.153 108.808 124.285 109.695 125.821C110.583 127.357 110.84 129.177 110.413 130.899C109.986 132.621 108.908 134.11 107.405 135.053L99.1186 139.845C98.077 140.439 96.8995 140.755 95.7002 140.76Z" fill="white"/>
</svg>
