<svg width="793" height="802" viewBox="0 0 793 802" fill="none" xmlns="http://www.w3.org/2000/svg">
<path d="M178.333 181.482L212.333 217.482" stroke="white" stroke-width="2"/>
<path d="M658.833 337.482L706.333 324.982" stroke="white" stroke-width="2"/>
<path d="M331.333 662.982L318.833 708.482" stroke="white" stroke-width="2"/>
<path fill-rule="evenodd" clip-rule="evenodd" d="M235.447 146.261C231.618 148.766 226.706 152.096 224.531 153.662L220.575 156.509L221.452 158.173C221.935 159.089 225.019 163.468 228.305 167.906C231.592 172.344 234.547 176.059 234.873 176.164C235.199 176.268 239.359 173.642 244.12 170.327L252.773 164.3L295.412 142.446L321.258 133.395L338.977 129.284C348.722 127.021 357.043 124.997 357.468 124.785C357.893 124.574 358.089 123.044 357.903 121.386C357.717 119.729 357.292 117.204 356.959 115.775L356.353 113.178L343.551 115.874C336.509 117.357 326.42 119.835 321.131 121.381L311.515 124.193L306.997 112.168L302.887 113.523C300.626 114.269 294.537 116.501 289.355 118.484L279.932 122.09L261.17 131.9C250.851 137.294 239.275 143.757 235.447 146.261ZM361.282 117.158C361.464 119.454 362.079 122.238 362.649 123.346L363.684 125.36L365.089 124.637C365.862 124.24 367.332 123.823 368.355 123.712L370.215 123.508L369.864 120.375C369.67 118.65 369.246 116.098 368.92 114.703L368.329 112.167L365.139 112.317C363.385 112.401 361.724 112.585 361.45 112.726C361.175 112.867 361.1 114.862 361.282 117.158ZM271.26 171.011L276.045 169.351L272.917 163.268L267.83 165.884L271.26 171.011ZM279.109 166.782L282.005 166.321L278.862 160.21L275.758 161.807L279.109 166.782ZM283.976 165.282L287.106 162.841L284.939 157.085L280.844 159.191L283.976 165.282ZM301.342 157.63L303.401 155.542L301.304 149.922L298.199 151.519L301.342 157.63ZM247.379 181.83C248.034 183.103 248.922 184.256 249.354 184.394C249.786 184.533 251.135 183.868 252.353 182.915L254.565 181.185L252.136 176.461L246.19 179.518L247.379 181.83ZM311.016 148.163C311.129 149.195 311.546 150.672 311.944 151.445L312.666 152.85L316.399 150.93L315.854 148.486C315.555 147.143 314.893 145.792 314.383 145.484C313.873 145.177 312.861 145.232 312.134 145.606L310.812 146.286L311.016 148.163ZM237.548 193.168L240.443 192.707L237.3 186.596L234.196 188.193L237.548 193.168ZM225.643 197.08C226.417 197.772 227.375 198.97 227.773 199.743C228.17 200.516 228.826 200.97 229.231 200.751C229.636 200.532 230.374 199.658 230.873 198.81L231.779 197.267L228.277 193.743L224.235 195.821L225.643 197.08ZM389.985 115.543C389.994 118.267 390.212 120.906 390.47 121.407C390.727 121.907 392.578 122.182 394.582 122.016C396.587 121.851 398.249 121.487 398.277 121.208C398.303 120.929 398.224 118.619 398.102 116.074C397.979 113.53 397.694 111.09 397.468 110.651C397.242 110.212 395.656 109.919 393.942 110C392.228 110.081 390.634 110.247 390.398 110.369C390.162 110.49 389.977 112.818 389.985 115.543ZM418.726 112.402C418.534 113.363 418.384 115.921 418.396 118.088L418.416 122.025L421.649 122.366C423.427 122.554 425.261 122.511 425.724 122.273C426.188 122.034 426.655 119.461 426.763 116.552L426.959 111.267L423.652 110.663C421.832 110.331 420.059 110.193 419.711 110.357C419.363 110.521 418.92 111.442 418.726 112.402ZM447.078 118.496C446.759 120.556 446.454 122.924 446.403 123.76L446.309 125.278L453.998 126.391L456.111 114.792L453.077 114.159C451.408 113.811 449.506 113.802 448.851 114.138L447.661 114.75L447.078 118.496ZM475.092 124.994L473.543 130.093L474.879 131.287C475.613 131.943 477.328 132.498 478.689 132.521L481.165 132.561L484.503 121.606L481.196 120.43C479.376 119.782 477.607 119.398 477.264 119.574C476.921 119.751 475.943 122.189 475.092 124.994ZM502.441 132.983C501.362 135.724 500.747 138.491 501.076 139.13C501.405 139.77 502.996 140.607 504.611 140.991L507.546 141.688L509.862 136.584C511.136 133.776 512.007 131.149 511.799 130.745C511.592 130.341 509.843 129.557 507.914 129.004L504.404 127.999L502.441 132.983ZM144.338 334.956C142.896 340.695 141.555 345.753 141.361 346.198C141.167 346.642 139.954 353.404 138.666 361.226C137.378 369.047 136.228 377.669 136.109 380.386C135.989 383.104 135.669 385.441 135.396 385.58C135.123 385.72 129.086 385.493 121.98 385.076L109.061 384.318L108.481 387.331C108.162 388.988 107.849 395.231 107.786 401.206C107.721 407.179 107.809 412.339 107.979 412.67C108.15 413.002 110.518 413.266 113.243 413.258C115.968 413.249 118.607 413.031 119.107 412.773C119.608 412.516 119.884 410.682 119.72 408.699C119.556 406.716 119.732 404.934 120.111 404.74C120.488 404.545 125.758 404.421 131.821 404.464C137.883 404.507 142.9 404.323 142.971 404.054C143.041 403.787 143.479 397.17 143.944 389.35C144.409 381.531 145.429 371.139 146.212 366.257C146.995 361.375 148.79 352.276 150.202 346.036C151.613 339.797 153.383 333.01 154.134 330.953C154.884 328.896 155.231 326.692 154.902 326.054C154.574 325.415 153.111 324.574 151.65 324.185C150.189 323.796 148.537 323.712 147.979 324C147.42 324.287 145.781 329.217 144.338 334.956ZM526.446 150.193L529.561 151.96C531.275 152.931 532.952 153.563 533.287 153.365C533.623 153.167 534.857 150.654 536.031 147.78L538.164 142.555L530.791 139.655L526.446 150.193ZM539.662 149.734C538.249 152.271 536.998 154.561 536.883 154.823C536.766 155.085 538.378 156.327 540.464 157.584L544.257 159.87L538.62 169.557C535.52 174.886 533.183 179.635 533.428 180.111C533.673 180.586 536.721 182.721 540.202 184.855C543.684 186.989 551.451 192.372 557.464 196.817C563.476 201.262 572.165 208.315 576.773 212.492C581.382 216.669 587.25 222.251 589.812 224.895L594.473 229.703L595.524 229.145C596.102 228.839 597.472 227.773 598.569 226.778L600.564 224.969L598.057 221.733C596.678 219.954 590.667 213.961 584.702 208.415L573.855 198.331L552.294 182.544L558.901 172.925C562.536 167.635 565.963 162.557 566.52 161.642L567.532 159.976L561.663 156.461C558.435 154.529 555.693 152.749 555.569 152.507C555.444 152.265 552.518 150.566 549.066 148.731C545.612 146.896 542.662 145.332 542.509 145.256C542.356 145.182 541.074 147.196 539.662 149.734ZM108.41 422.059L108.401 425.847L119.905 425.041L120.281 422.655C120.488 421.342 120.285 419.544 119.83 418.659L119.002 417.05L114.642 417.181C112.243 417.253 109.862 417.528 109.35 417.791C108.838 418.055 108.414 419.975 108.41 422.059ZM111.55 450.804L112.354 454.463L123.091 453.018L123.444 452.051C123.639 451.518 123.484 449.762 123.101 448.148L122.403 445.211L116.865 446.029C113.818 446.478 111.195 446.914 111.035 446.996C110.875 447.078 111.107 448.793 111.55 450.804ZM117.833 481.085L120.329 483.316L124.785 481.9C127.235 481.121 129.332 480.199 129.443 479.85C129.555 479.502 129.216 477.705 128.689 475.857L127.732 472.497L124.063 473.535C122.045 474.106 119.517 474.753 118.447 474.972L116.5 475.368L117.833 481.085ZM127.71 510.931L132.861 509.118C135.695 508.121 138.075 507.075 138.15 506.794C138.225 506.512 137.87 504.741 137.36 502.859L136.435 499.437L132.351 500.751C130.105 501.474 127.532 502.436 126.634 502.89L125.004 503.715L127.71 510.931ZM139.622 537.546L150.522 531.94L146.954 525.004L136.054 530.609L139.622 537.546ZM153.872 553.683L150.356 555.983L154.004 563.076L158.783 559.855C161.411 558.085 163.607 556.455 163.662 556.232C163.717 556.01 162.797 554.493 161.616 552.86L159.469 549.892L158.429 550.637C157.856 551.049 155.807 552.418 153.872 553.683ZM170.119 577.427L166.219 580.878L170.379 586.256L174.643 583.65C176.988 582.216 179.098 580.482 179.332 579.797L179.757 578.55L177.503 575.825C176.263 574.327 174.972 573.298 174.634 573.538C174.296 573.779 172.263 575.528 170.119 577.427ZM177.111 586.832L174.542 588.681L174.883 591.813L182.749 600.747C187.076 605.66 193.842 612.777 197.786 616.561C201.731 620.345 204.928 623.817 204.892 624.275C204.856 624.735 203.288 626.674 201.407 628.587L197.987 632.064L198.322 635.138L208.398 643.438C213.939 648.003 223.722 655.241 230.137 659.522C236.551 663.804 246.515 669.918 252.279 673.11C258.043 676.301 266.422 680.592 270.9 682.644L279.042 686.376L279.842 685.11C280.28 684.413 282.524 679.558 284.826 674.319C287.127 669.08 288.828 664.438 288.605 664.003C288.381 663.568 285.911 662.196 283.117 660.955C280.321 659.712 272.779 655.761 266.354 652.174C259.931 648.586 252.259 644.109 249.309 642.226C246.358 640.343 240.544 636.285 236.39 633.208C232.235 630.131 225.422 624.859 221.249 621.492C217.077 618.124 210.252 612.001 206.083 607.884C201.915 603.768 196.445 598.123 193.928 595.34C191.411 592.558 187.904 588.63 186.135 586.611L182.918 582.941L181.298 583.962C180.407 584.522 178.523 585.815 177.111 586.832ZM667.283 359.989L671.873 359.212L672.555 358.081C672.93 357.458 672.907 356.306 672.503 355.52L671.768 354.093L665.823 357.15L667.283 359.989ZM669.735 370.8L674.736 369.066L673.696 368.049C673.123 367.489 671.45 367.178 669.977 367.357L667.298 367.682L669.735 370.8ZM684.471 379.829C684.753 382.954 685.123 390.515 685.293 396.63C685.464 402.744 685.475 411.478 685.319 416.038C685.162 420.598 684.367 429.746 683.553 436.367C682.739 442.988 681.969 449.023 681.84 449.778C681.712 450.533 680.874 454.911 679.979 459.506C679.083 464.102 677.603 470.783 676.693 474.352C675.781 477.922 673.22 486.455 671.002 493.316L666.969 505.787L672.084 508.108C674.898 509.384 677.522 510.262 677.916 510.06C678.311 509.857 680.825 502.503 683.504 493.717C686.181 484.931 688.973 475.32 689.706 472.359C690.44 469.398 691.413 466.782 691.869 466.547C692.326 466.312 695.074 466.593 697.976 467.171L703.253 468.221L704.055 466.34C704.496 465.306 705.766 458.308 706.875 450.789C707.986 443.269 709.213 432.725 709.602 427.356C709.991 421.988 710.421 414.437 710.557 410.576C710.693 406.716 710.46 396.732 710.04 388.39L709.275 373.223L707.186 370.578L696.565 371.855C690.724 372.557 685.498 373.359 684.953 373.639L683.96 374.144L684.471 379.829ZM670.447 387.886L672.041 388.032C672.917 388.113 674.18 387.905 674.847 387.574L676.058 386.97L676.146 381.594L674.368 381.434C673.391 381.346 671.859 381.642 670.964 382.09L669.337 382.908L670.447 387.886ZM670.323 410.773C670.441 411.845 670.709 412.758 670.92 412.803C671.131 412.846 672.552 412.888 674.077 412.894L676.85 412.907L676.931 407.927L674.471 407.886C673.119 407.864 671.584 408.066 671.061 408.334C670.538 408.603 670.206 409.7 670.323 410.773ZM669.882 419.131L672.428 419.576C673.828 419.82 675.287 419.723 675.669 419.36C676.052 418.998 676.246 418.28 676.103 417.767C675.959 417.253 674.552 416.688 672.977 416.512L670.113 416.193L669.882 419.131ZM669.402 425.251L675.361 426.067L675.926 425.127C676.237 424.611 676.169 423.561 675.775 422.795L675.059 421.402L670.27 421.324L669.402 425.251ZM668.6 442.402C669.144 442.934 670.56 443.454 671.746 443.558L673.901 443.748L674.234 442.712L674.565 441.676L672.535 440.81C671.419 440.335 669.854 440.28 669.058 440.689L667.61 441.434L668.6 442.402ZM665.433 455.162L665.324 456.55L668.048 457.576C669.546 458.14 671.101 458.433 671.503 458.226C671.905 458.019 672.14 456.982 672.024 455.92L671.814 453.99L669.985 453.21C668.978 452.781 667.568 452.732 666.849 453.102C666.13 453.472 665.492 454.399 665.433 455.162ZM663.651 513.507L662.208 516.568L665.811 518.43C667.792 519.455 670.41 520.513 671.628 520.783L673.842 521.272L674.891 518.486C675.467 516.954 675.731 515.293 675.475 514.796C675.22 514.299 673.056 512.962 670.666 511.825C668.277 510.688 666.046 509.912 665.707 510.101C665.37 510.29 664.444 511.823 663.651 513.507ZM651.685 538.582C650.969 540.207 650.524 541.807 650.695 542.139C650.866 542.471 653.045 543.946 655.535 545.414L660.065 548.085L661.901 545.001C662.911 543.305 663.842 541.722 663.97 541.483C664.098 541.246 662.466 540.004 660.344 538.725C658.221 537.446 655.696 536.225 654.734 536.014L652.985 535.628L651.685 538.582ZM636.916 562.857C636.16 564.066 635.417 565.25 635.264 565.489C635.112 565.727 637.092 567.387 639.665 569.177L644.343 572.433L645.473 571.852C646.095 571.532 647.209 569.899 647.947 568.223L649.29 565.176L644.49 562.483C641.849 561.002 639.375 559.985 638.99 560.224C638.605 560.462 637.672 561.647 636.916 562.857ZM458.516 661.89L459.428 665.336L461.202 665.48C462.178 665.559 465.452 664.956 468.479 664.141C471.505 663.326 478.205 661.333 483.367 659.714C488.528 658.093 498.928 654.271 506.477 651.219L520.204 645.671L531.673 669.218L557.584 655.893L551.979 644.993L544.089 649.05L542.43 647.084C541.517 646.004 538.842 641.643 536.484 637.396L532.198 629.676L501.196 644.921L489.982 648.813C483.814 650.953 474.103 653.946 468.401 655.463C462.699 656.981 457.938 658.272 457.819 658.333C457.701 658.394 458.014 659.994 458.516 661.89ZM620.428 585.007L618.752 587.23L619.455 588.596C619.842 589.348 621.63 591.203 623.429 592.718L626.701 595.474L628.6 593.636C629.645 592.627 630.711 591.218 630.967 590.506L631.433 589.212L627.396 585.591C625.176 583.6 623.076 582.154 622.732 582.379C622.387 582.603 621.351 583.785 620.428 585.007ZM600.798 606.267L598.67 608.57L606.992 616.905L609.623 614.81C611.071 613.659 612.357 612.396 612.483 612.004C612.608 611.614 610.958 609.536 608.815 607.386C606.673 605.238 604.47 603.589 603.922 603.722C603.374 603.855 601.969 605.001 600.798 606.267ZM579.224 625.59L577.687 626.964L578.986 628.386C579.702 629.168 581.374 631.265 582.703 633.045L585.12 636.282L587.868 634.317C589.38 633.236 590.654 631.862 590.702 631.263L590.788 630.175L583.878 622.323L582.32 623.27C581.463 623.79 580.07 624.834 579.224 625.59ZM555.343 644.523L561.263 652.748L566.867 649.866L567.087 647.069L561.256 638.968L555.55 641.903L555.343 644.523Z" fill="#E2E2E2"/>
<path d="M260.443 631.732L261.259 629.733C261.708 628.632 262.363 627.493 262.714 627.2C263.067 626.906 264.057 627.095 264.916 627.619L266.476 628.573L265.872 630.227C265.539 631.137 264.606 632.398 263.798 633.032L262.329 634.183L260.443 631.732Z" fill="#C9C9C9"/>
<path d="M272.53 639.566L273.247 637.106C273.641 635.753 274.249 634.427 274.597 634.159C274.946 633.89 275.757 633.87 276.399 634.113L277.566 634.553L274.757 639.855L273.644 639.711L272.53 639.566Z" fill="#C9C9C9"/>
<path d="M288.017 646.581C287.668 646.128 287.991 644.777 288.732 643.577C289.473 642.377 290.495 641.344 291.001 641.28C291.507 641.218 292.324 641.688 292.815 642.327L293.708 643.487L291.165 647.145L289.908 647.275C289.216 647.346 288.365 647.033 288.017 646.581Z" fill="#C9C9C9"/>
<path d="M293.549 649.144L294.23 646.659C294.604 645.293 295.186 643.943 295.523 643.66C295.86 643.377 296.556 643.691 297.068 644.356L297.999 645.566L295.349 649.379L293.549 649.144Z" fill="#C9C9C9"/>
<path d="M299.454 651.014L300.076 648.731C300.417 647.476 300.959 646.227 301.28 645.957C301.6 645.686 302.779 645.878 303.899 646.383L305.935 647.301L305.711 649.025C305.587 649.973 304.842 651.245 304.056 651.85L302.625 652.951L299.454 651.014Z" fill="#C9C9C9"/>
<path d="M322.789 658.748L322.862 656.78C322.902 655.697 323.296 654.534 323.737 654.194C324.178 653.855 325.578 653.712 326.847 653.878L329.156 654.178L328.931 656.983C328.809 658.524 328.478 659.963 328.197 660.179C327.916 660.396 326.585 660.162 325.238 659.661L322.789 658.748Z" fill="#C9C9C9"/>
<path d="M338.656 661.681L339.472 659.682C339.921 658.582 340.564 657.452 340.901 657.169C341.239 656.888 341.849 657.09 342.257 657.619C342.665 658.149 342.722 659.599 342.383 660.843C342.045 662.087 341.492 663.335 341.155 663.618C340.819 663.901 340.118 663.581 339.599 662.907L338.656 661.681Z" fill="#C9C9C9"/>
<path d="M348.973 664.449L349.271 662.163C349.434 660.905 349.933 659.596 350.38 659.252C350.826 658.909 351.836 659.023 352.628 659.505L354.064 660.384L353.767 662.665C353.603 663.92 353.104 665.229 352.655 665.574C352.207 665.919 351.195 665.807 350.406 665.325L348.973 664.449Z" fill="#C9C9C9"/>
</svg>
