<svg width="604" height="577" viewBox="0 0 604 577" fill="none" xmlns="http://www.w3.org/2000/svg">
<path fill-rule="evenodd" clip-rule="evenodd" d="M128.614 36.2789C124.786 38.7842 119.873 42.1136 117.698 43.6797L113.742 46.5273L114.619 48.1913C115.102 49.1068 118.186 53.4861 121.472 57.9235C124.759 62.3613 127.714 66.0769 128.04 66.1823C128.366 66.2863 132.526 63.6596 137.287 60.3443L145.94 54.3177L188.58 32.4635L214.425 23.4131L232.144 19.3014C241.889 17.0389 250.211 15.0149 250.635 14.8027C251.06 14.5916 251.256 13.0615 251.07 11.4041C250.884 9.74666 250.459 7.22139 250.126 5.79242L249.52 3.19592L236.718 5.89179C229.676 7.37459 219.587 9.85281 214.298 11.3984L204.682 14.2111L200.164 2.18544L196.054 3.54125C193.793 4.28652 187.704 6.5185 182.522 8.50194L173.1 12.1083L154.337 21.9175C144.018 27.3122 132.443 33.7751 128.614 36.2789ZM254.449 7.17559C254.631 9.4714 255.246 12.2562 255.816 13.364L256.851 15.3775L258.256 14.6549C259.029 14.2575 260.499 13.8411 261.522 13.7298L263.382 13.5263L263.031 10.3927C262.837 8.66811 262.413 6.11589 262.087 4.72071L261.496 2.18436L258.306 2.3352C256.552 2.4189 254.891 2.60271 254.617 2.74387C254.342 2.88503 254.267 4.87977 254.449 7.17559ZM164.428 61.0289L169.212 59.3689L166.084 53.2857L160.997 55.9015L164.428 61.0289ZM172.276 56.7996L175.172 56.3391L172.029 50.2282L168.925 51.8247L172.276 56.7996ZM177.144 55.3001L180.273 52.8585L178.107 47.1028L174.011 49.209L177.144 55.3001ZM194.509 47.6477L196.568 45.5601L194.471 39.9401L191.366 41.5367L194.509 47.6477ZM140.546 71.8481C141.201 73.1204 142.089 74.2735 142.522 74.4121C142.953 74.5512 144.302 73.8861 145.52 72.9328L147.732 71.2024L145.303 66.4787L139.357 69.5363L140.546 71.8481ZM204.184 38.1803C204.296 39.2127 204.713 40.6895 205.111 41.4624L205.833 42.8675L209.566 40.9479L209.021 38.5042C208.722 37.1605 208.06 35.8095 207.55 35.5019C207.04 35.1952 206.028 35.2495 205.301 35.6236L203.979 36.3034L204.184 38.1803ZM130.715 83.1855L133.61 82.725L130.468 76.6141L127.363 78.2106L130.715 83.1855ZM118.81 87.0976C119.584 87.7895 120.542 88.9881 120.94 89.761C121.337 90.5339 121.993 90.9875 122.398 90.7691C122.803 90.5497 123.541 89.6762 124.04 88.8283L124.946 87.2846L121.444 83.7607L117.402 85.8393L118.81 87.0976ZM283.152 5.56053C283.161 8.28489 283.38 10.9241 283.637 11.4246C283.894 11.925 285.745 12.2 287.749 12.0337C289.754 11.8684 291.417 11.5047 291.444 11.2263C291.471 10.9469 291.391 8.63698 291.269 6.09231C291.146 3.54814 290.861 1.10747 290.635 0.668491C290.409 0.229517 288.823 -0.0634241 287.109 0.0183093C285.396 0.0990628 283.801 0.265192 283.565 0.386477C283.329 0.507762 283.144 2.83565 283.152 5.56053ZM311.893 2.42006C311.701 3.38106 311.551 5.9388 311.563 8.10548L311.583 12.0432L314.816 12.3842C316.594 12.5714 318.428 12.5291 318.891 12.2906C319.355 12.0521 319.822 9.47885 319.93 6.57026L320.126 1.28456L316.819 0.681223C314.999 0.349058 313.227 0.210699 312.878 0.375126C312.53 0.53905 312.087 1.45953 311.893 2.42006ZM340.246 8.51343C339.926 10.5737 339.621 12.9419 339.57 13.7777L339.476 15.2957L347.165 16.4084L349.278 4.81033L346.244 4.17698C344.575 3.82864 342.673 3.81934 342.018 4.15619L340.828 4.7682L340.246 8.51343ZM368.259 15.0118L366.71 20.1111L368.046 21.3049C368.78 21.9609 370.495 22.516 371.857 22.5389L374.332 22.5791L377.67 11.6238L374.363 10.4479C372.543 9.8003 370.774 9.41572 370.431 9.59205C370.088 9.76837 369.11 12.2069 368.259 15.0118ZM395.609 23.0003C394.529 25.742 393.914 28.5089 394.243 29.148C394.572 29.7881 396.163 30.6252 397.778 31.0091L400.713 31.7058L403.029 26.6019C404.303 23.7941 405.174 21.167 404.967 20.7627C404.759 20.3584 403.01 19.5749 401.081 19.0222L397.571 18.0165L395.609 23.0003ZM37.5055 224.974C36.0627 230.713 34.7222 235.771 34.5284 236.215C34.3336 236.66 33.1212 243.422 31.8335 251.244C30.5454 259.064 29.3949 267.687 29.2762 270.404C29.1566 273.122 28.8363 275.459 28.5633 275.598C28.2903 275.737 22.2532 275.51 15.1475 275.094L2.22768 274.335L1.64841 277.348C1.32935 279.006 1.01651 285.249 0.952772 291.223C0.888521 297.197 0.975994 302.357 1.1462 302.688C1.31692 303.02 3.68557 303.284 6.41044 303.276C9.13481 303.267 11.7741 303.049 12.2745 302.791C12.7749 302.534 13.0511 300.7 12.8871 298.717C12.723 296.734 12.8991 294.952 13.2777 294.757C13.6552 294.563 18.9253 294.439 24.9877 294.481C31.0496 294.525 36.0669 294.341 36.1381 294.072C36.2083 293.804 36.646 287.188 37.1114 279.368C37.5758 271.549 38.5965 261.156 39.3788 256.275C40.1621 251.392 41.957 242.294 43.3693 236.054C44.7806 229.815 46.5499 223.028 47.3015 220.971C48.0516 218.914 48.3978 216.71 48.0696 216.071C47.7414 215.433 46.2777 214.592 44.8171 214.203C43.3565 213.814 41.7045 213.73 41.1457 214.018C40.5868 214.305 38.9484 219.235 37.5055 224.974ZM419.613 40.2109L422.728 41.978C424.442 42.9488 426.119 43.5811 426.454 43.3825C426.79 43.1848 428.024 40.6716 429.198 37.7977L431.331 32.5732L423.958 29.6728L419.613 40.2109ZM432.829 39.7519C431.416 42.2891 430.165 44.5787 430.05 44.8412C429.934 45.1026 431.545 46.3451 433.631 47.6017L437.424 49.8874L431.787 59.5751C428.687 64.9042 426.351 69.6531 426.595 70.1287C426.84 70.6043 429.889 72.739 433.369 74.8733C436.851 77.0071 444.619 82.3898 450.631 86.8346C456.643 91.2794 465.333 98.333 469.94 102.51C474.549 106.687 480.417 112.268 482.979 114.913L487.64 119.721L488.691 119.162C489.269 118.856 490.639 117.791 491.736 116.796L493.732 114.986L491.225 111.751C489.845 109.972 483.835 103.979 477.869 98.4329L467.022 88.3488L445.461 72.5618L452.068 62.9429C455.703 57.653 459.13 52.5748 459.687 51.6595L460.699 49.994L454.83 46.479C451.602 44.5466 448.86 42.7668 448.736 42.525C448.612 42.2832 445.685 40.5842 442.233 38.7486C438.779 36.9135 435.829 35.3498 435.676 35.2743C435.523 35.2003 434.241 37.2137 432.829 39.7519ZM1.57671 312.077L1.56788 315.865L13.0726 315.058L13.4481 312.673C13.655 311.359 13.4522 309.562 12.9971 308.677L12.1696 307.068L7.809 307.199C5.41027 307.271 3.02929 307.546 2.51699 307.809C2.00469 308.073 1.58146 309.993 1.57671 312.077ZM4.71671 340.822L5.52072 344.48L16.2577 343.036L16.611 342.069C16.8058 341.536 16.6508 339.78 16.2677 338.165L15.5705 335.229L10.0322 336.047C6.98543 336.496 4.36258 336.932 4.20205 337.014C4.04252 337.096 4.27377 338.81 4.71671 340.822ZM10.9998 371.103L13.4964 373.333L17.952 371.918C20.402 371.139 22.4991 370.217 22.6102 369.868C22.7219 369.52 22.3831 367.723 21.8558 365.874L20.8987 362.515L17.2301 363.553C15.2118 364.124 12.6841 364.771 11.6136 364.99L9.66708 365.385L10.9998 371.103ZM20.877 400.949L26.0278 399.136C28.862 398.139 31.2422 397.093 31.3168 396.812C31.3923 396.53 31.0368 394.759 30.5276 392.877L29.6022 389.455L25.5177 390.769C23.2718 391.491 20.6993 392.453 19.8015 392.908L18.1708 393.733L20.877 400.949ZM32.7887 427.563L43.6887 421.958L40.1215 415.021L29.2215 420.627L32.7887 427.563ZM47.0392 443.701L43.5236 446.001L47.1713 453.094L51.9503 449.873C54.5784 448.103 56.7745 446.473 56.8293 446.25C56.8841 446.028 55.9639 444.511 54.7832 442.878L52.6365 439.91L51.5964 440.655C51.0235 441.066 48.9739 442.436 47.0392 443.701ZM63.2858 467.444L59.3861 470.896L63.5465 476.274L67.8097 473.668C70.1546 472.234 72.2649 470.5 72.4988 469.815L72.9237 468.567L70.6706 465.843C69.4302 464.345 68.1392 463.316 67.8016 463.556C67.4629 463.796 65.4306 465.546 63.2858 467.444ZM70.2778 476.85L67.7094 478.699L68.0504 481.83L75.9166 490.765C80.2427 495.678 87.0088 502.795 90.9534 506.579C94.8979 510.363 98.0953 513.835 98.0592 514.293C98.0235 514.752 96.4548 516.692 94.5743 518.605L91.1538 522.082L91.4892 525.156L101.565 533.456C107.106 538.02 116.889 545.258 123.304 549.54C129.718 553.822 139.683 559.936 145.446 563.127C151.21 566.319 159.589 570.61 164.067 572.662L172.209 576.394L173.009 575.128C173.447 574.431 175.692 569.576 177.993 564.337C180.294 559.098 181.995 554.455 181.772 554.02C181.548 553.585 179.079 552.214 176.284 550.972C173.488 549.73 165.946 545.779 159.521 542.192C153.098 538.604 145.427 534.127 142.476 532.244C139.525 530.361 133.711 526.303 129.557 523.226C125.402 520.149 118.589 514.877 114.416 511.509C110.244 508.142 103.42 502.019 99.25 497.902C95.0819 493.785 89.6118 488.141 87.0954 485.358C84.5786 482.576 81.071 478.648 79.3024 476.629L76.0852 472.958L74.4652 473.979C73.5745 474.54 71.6905 475.832 70.2778 476.85ZM560.45 250.007L565.04 249.23L565.722 248.099C566.097 247.476 566.074 246.324 565.67 245.538L564.935 244.11L558.99 247.168L560.45 250.007ZM562.902 260.818L567.903 259.083L566.863 258.067C566.29 257.507 564.617 257.196 563.144 257.375L560.465 257.7L562.902 260.818ZM577.638 269.847C577.92 272.972 578.29 280.533 578.46 286.648C578.631 292.762 578.642 301.496 578.486 306.056C578.329 310.616 577.534 319.764 576.72 326.385C575.907 333.006 575.136 339.04 575.007 339.796C574.879 340.551 574.041 344.928 573.146 349.524C572.25 354.119 570.771 360.801 569.86 364.37C568.948 367.94 566.387 376.473 564.169 383.334L560.137 395.805L565.251 398.126C568.065 399.402 570.689 400.28 571.083 400.077C571.478 399.875 573.992 392.521 576.671 383.734C579.348 374.949 582.141 365.338 582.873 362.376C583.607 359.415 584.58 356.8 585.037 356.565C585.493 356.33 588.241 356.611 591.143 357.189L596.42 358.239L597.222 356.358C597.664 355.324 598.933 348.326 600.042 340.806C601.153 333.287 602.38 322.743 602.769 317.374C603.158 312.005 603.588 304.455 603.724 300.594C603.86 296.734 603.627 286.75 603.207 278.408L602.442 263.241L600.353 260.596L589.732 261.873C583.891 262.575 578.665 263.377 578.12 263.656L577.127 264.162L577.638 269.847ZM563.614 277.904L565.209 278.05C566.085 278.131 567.347 277.923 568.014 277.592L569.226 276.987L569.313 271.612L567.535 271.452C566.558 271.364 565.026 271.659 564.131 272.108L562.505 272.926L563.614 277.904ZM563.49 300.79C563.608 301.863 563.876 302.776 564.087 302.82C564.298 302.863 565.719 302.906 567.244 302.912L570.017 302.925L570.098 297.945L567.638 297.904C566.286 297.882 564.751 298.084 564.228 298.352C563.705 298.621 563.373 299.718 563.49 300.79ZM563.049 309.149L565.595 309.594C566.995 309.837 568.454 309.741 568.836 309.378C569.219 309.016 569.414 308.298 569.27 307.784C569.126 307.271 567.719 306.706 566.144 306.53L563.281 306.211L563.049 309.149ZM562.569 315.269L568.528 316.085L569.093 315.145C569.404 314.629 569.337 313.579 568.943 312.813L568.226 311.42L563.437 311.342L562.569 315.269ZM561.767 332.42C562.311 332.952 563.727 333.472 564.913 333.576L567.068 333.766L567.401 332.73L567.733 331.694L565.703 330.828C564.586 330.352 563.021 330.297 562.225 330.707L560.777 331.452L561.767 332.42ZM558.6 345.18L558.491 346.568L561.215 347.594C562.713 348.158 564.268 348.451 564.67 348.244C565.073 348.037 565.307 347 565.191 345.938L564.981 344.008L563.152 343.228C562.146 342.799 560.735 342.75 560.016 343.12C559.297 343.49 558.66 344.416 558.6 345.18ZM556.818 403.524L555.375 406.586L558.978 408.448C560.959 409.472 563.577 410.531 564.795 410.8L567.009 411.29L568.058 408.503C568.635 406.971 568.898 405.311 568.642 404.813C568.387 404.317 566.224 402.98 563.833 401.843C561.444 400.706 559.213 399.93 558.874 400.119C558.537 400.307 557.611 401.841 556.818 403.524ZM544.852 428.6C544.136 430.224 543.691 431.825 543.862 432.157C544.033 432.489 546.212 433.963 548.702 435.432L553.232 438.103L555.068 435.018C556.078 433.323 557.009 431.74 557.137 431.501C557.265 431.263 555.633 430.022 553.511 428.742C551.388 427.463 548.864 426.243 547.901 426.031L546.152 425.646L544.852 428.6ZM530.083 452.874C529.327 454.084 528.584 455.268 528.431 455.507C528.279 455.744 530.259 457.405 532.833 459.195L537.51 462.45L538.64 461.87C539.262 461.55 540.376 459.917 541.114 458.24L542.458 455.194L537.657 452.5C535.016 451.02 532.542 450.002 532.157 450.241C531.772 450.48 530.839 451.665 530.083 452.874ZM351.683 551.908L352.595 555.354L354.369 555.498C355.345 555.577 358.619 554.974 361.646 554.159C364.672 553.343 371.372 551.351 376.534 549.732C381.695 548.111 392.095 544.289 399.644 541.237L413.371 535.689L424.84 559.236L450.751 545.911L445.146 535.011L437.256 539.068L435.597 537.102C434.684 536.021 432.009 531.661 429.652 527.414L425.365 519.694L394.363 534.939L383.149 538.831C376.982 540.971 367.27 543.963 361.568 545.481C355.866 546.999 351.105 548.29 350.986 548.351C350.868 548.411 351.181 550.012 351.683 551.908ZM513.596 475.025L511.919 477.247L512.622 478.614C513.009 479.366 514.797 481.221 516.596 482.736L519.868 485.492L521.767 483.654C522.812 482.644 523.878 481.236 524.134 480.523L524.601 479.23L520.563 475.609C518.343 473.618 516.243 472.172 515.899 472.397C515.554 472.62 514.519 473.803 513.596 475.025ZM493.965 496.285L491.838 498.587L500.159 506.923L502.79 504.828C504.238 503.676 505.524 502.413 505.65 502.022C505.775 501.632 504.125 499.553 501.982 497.404C499.84 495.255 497.637 493.606 497.089 493.74C496.541 493.873 495.136 495.019 493.965 496.285ZM472.391 515.608L470.854 516.982L472.154 518.403C472.869 519.186 474.541 521.283 475.87 523.063L478.287 526.299L481.035 524.335C482.547 523.254 483.821 521.88 483.869 521.281L483.955 520.193L477.045 512.341L475.487 513.288C474.631 513.808 473.238 514.851 472.391 515.608ZM448.51 534.541L454.43 542.766L460.034 539.884L460.254 537.087L454.423 528.986L448.717 531.921L448.51 534.541Z" fill="#E2E2E2"/>
<path d="M153.61 521.749L154.426 519.75C154.875 518.65 155.53 517.511 155.882 517.217C156.235 516.924 157.224 517.112 158.083 517.637L159.643 518.59L159.039 520.245C158.706 521.155 157.773 522.416 156.965 523.05L155.496 524.201L153.61 521.749Z" fill="#C9C9C9"/>
<path d="M165.698 529.583L166.415 527.124C166.808 525.771 167.416 524.445 167.765 524.177C168.114 523.908 168.924 523.887 169.566 524.131L170.733 524.571L167.924 529.873L166.811 529.729L165.698 529.583Z" fill="#C9C9C9"/>
<path d="M181.184 536.599C180.835 536.146 181.158 534.795 181.899 533.595C182.64 532.395 183.662 531.362 184.168 531.298C184.674 531.236 185.491 531.706 185.982 532.345L186.875 533.505L184.333 537.163L183.075 537.292C182.383 537.363 181.532 537.051 181.184 536.599Z" fill="#C9C9C9"/>
<path d="M186.717 539.162L187.397 536.677C187.771 535.311 188.353 533.961 188.69 533.678C189.027 533.395 189.723 533.708 190.235 534.374L191.166 535.584L188.516 539.397L186.717 539.162Z" fill="#C9C9C9"/>
<path d="M192.621 541.032L193.243 538.749C193.584 537.493 194.126 536.245 194.447 535.975C194.767 535.704 195.946 535.896 197.066 536.401L199.102 537.319L198.878 539.043C198.754 539.991 198.01 541.263 197.223 541.868L195.792 542.969L192.621 541.032Z" fill="#C9C9C9"/>
<path d="M215.957 548.766L216.029 546.798C216.069 545.715 216.463 544.551 216.904 544.212C217.345 543.873 218.745 543.73 220.014 543.895L222.323 544.196L222.098 547C221.976 548.542 221.645 549.981 221.365 550.197C221.083 550.413 219.752 550.18 218.405 549.679L215.957 548.766Z" fill="#C9C9C9"/>
<path d="M231.823 551.699L232.639 549.7C233.088 548.6 233.732 547.469 234.069 547.187C234.406 546.906 235.016 547.107 235.424 547.637C235.832 548.167 235.889 549.617 235.55 550.861C235.212 552.104 234.659 553.353 234.322 553.635C233.986 553.919 233.285 553.598 232.767 552.925L231.823 551.699Z" fill="#C9C9C9"/>
<path d="M242.14 554.467L242.438 552.181C242.602 550.923 243.101 549.614 243.547 549.27C243.993 548.927 245.004 549.041 245.795 549.523L247.231 550.402L246.934 552.682C246.77 553.938 246.271 555.246 245.822 555.592C245.374 555.936 244.362 555.824 243.573 555.343L242.14 554.467Z" fill="#C9C9C9"/>
</svg>
