<svg width="428" height="426" viewBox="0 0 428 426" fill="none" xmlns="http://www.w3.org/2000/svg">
<path fill-rule="evenodd" clip-rule="evenodd" d="M121.733 404.391L123.068 402.56L122.446 401.73C122.104 401.275 118.41 398.993 114.238 396.659C110.064 394.326 102.951 389.934 98.4281 386.9L90.2045 381.381L89.1745 381.569C88.6086 381.672 87.5459 382.579 86.8122 383.585L85.481 385.414L88.7942 387.933C90.6161 389.319 97.2633 393.526 103.565 397.283C109.866 401.04 116.232 404.589 117.711 405.168L120.4 406.223L121.733 404.391ZM175.238 424.796C175.873 424.828 177.794 425.076 179.507 425.345L182.622 425.835L182.814 423.3C182.919 421.905 182.935 420.566 182.849 420.326C182.764 420.085 179.676 419.34 175.987 418.671L169.282 417.454L168.333 419.874L167.384 422.294L170.734 423.514C172.577 424.186 174.603 424.762 175.238 424.796ZM76.9724 376.477C77.2022 375.891 77.9041 374.849 78.5316 374.162L79.6719 372.913L74.3169 368.106L68.9614 363.297L67.4883 364.377C66.678 364.971 65.7864 366.022 65.5046 366.713L64.9943 367.969L68.1912 371.082C69.9486 372.795 72.5508 374.949 73.9712 375.869L76.5548 377.542L76.9724 376.477ZM63.4883 362.741C64.4797 361.895 65.3777 360.984 65.4834 360.715C65.5887 360.446 61.8586 355.788 57.1952 350.365C52.5308 344.942 46.9549 337.956 44.8031 334.839L40.8917 329.175L39.1156 329.763C38.1386 330.085 37.0976 330.964 36.8024 331.717L36.2659 333.085L40.5775 339.381C42.9491 342.844 47.6262 348.83 50.9701 352.682C54.3149 356.535 58.094 360.719 59.3685 361.981L61.6855 364.277L63.4883 362.741ZM29.9727 318.634C30.8739 318.24 31.8195 317.388 32.0737 316.74L32.5362 315.561L27.9628 306.568L23.3894 297.575L20.6745 298.926L17.9587 300.276L21.8932 308.212C24.056 312.577 26.3911 316.869 27.0801 317.749L28.3338 319.349L29.9727 318.634ZM308.716 406.213C311.899 404.51 314.686 402.652 314.909 402.083C315.132 401.514 314.684 400.214 313.913 399.193L312.513 397.337L306.715 400.365C303.526 402.03 300.722 403.85 300.484 404.411C300.244 404.971 300.697 406.303 301.489 407.368L302.929 409.308L308.716 406.213ZM330.156 393.874C331.727 393.073 335.84 390.394 339.296 387.918C342.753 385.443 349.585 379.96 354.479 375.731L363.377 368.044L362.033 365.926C361.293 364.761 360.31 363.66 359.848 363.478C359.386 363.297 356.775 365.307 354.044 367.944C351.313 370.581 344.907 375.888 339.807 379.737C334.706 383.585 329.265 387.501 327.714 388.438C326.162 389.375 324.781 390.428 324.643 390.778C324.506 391.13 325.047 392.297 325.846 393.373L327.3 395.33L330.156 393.874ZM9.3979 267.174C10.6047 266.986 11.7805 266.355 12.0099 265.77C12.2394 265.185 11.3395 258.895 10.0093 251.791C8.6805 244.687 7.33863 235.198 7.02844 230.703L6.46514 222.53L5.23491 222.065C4.55846 221.81 3.14703 221.766 2.09955 221.968L0.193684 222.333L1.23072 234.182C1.8018 240.698 3.28655 250.844 4.53195 256.728C5.77837 262.612 6.88819 267.445 6.99976 267.47C7.11173 267.494 8.19105 267.361 9.3979 267.174ZM4.6772 208.988L6.42593 208.65L6.77841 201.879L7.13123 195.107L5.78417 194.285C5.04367 193.834 3.71022 193.611 2.82185 193.792L1.20703 194.118L0.95339 198.063C0.813673 200.234 0.679454 203.46 0.654963 205.231L0.611565 208.454L1.76925 208.89C2.4069 209.13 3.71494 209.174 4.6772 208.988ZM390.22 335.677C392.557 332.195 395.326 328.027 396.372 326.416L398.276 323.488L396.183 321.963L394.09 320.439L393.159 320.919C392.646 321.182 389.825 325.098 386.888 329.622C383.952 334.146 381.671 338.088 381.82 338.384C381.967 338.68 382.962 339.617 384.03 340.466L385.971 342.008L390.22 335.677ZM412.771 291.544L420.029 272.221L417.561 270.906L415.094 269.59L407.713 288.837L400.332 308.084L402.923 309.476L405.515 310.867L412.771 291.544ZM420.668 267.332L421.558 266.664L422.912 259.966L424.266 253.267L421.68 252.253L419.094 251.239L417.636 256.852C416.834 259.938 415.867 263.271 415.486 264.254L414.794 266.045L417.286 267.022L419.779 268L420.668 267.332ZM423.477 240.336L426.015 240.812L426.58 237.296C426.891 235.363 427.337 229.977 427.572 225.329C427.807 220.681 427.969 213.329 427.932 208.991L427.864 201.103L426.449 200.242C425.671 199.769 424.265 199.537 423.322 199.726L421.611 200.071L421.619 213.487C421.623 220.866 421.346 229.841 421.002 233.433C420.658 237.024 420.504 239.939 420.659 239.912C420.813 239.884 422.082 240.075 423.477 240.336ZM98.5176 42.207C98.6936 41.7671 102.662 39.2003 107.338 36.5022C112.014 33.8041 119.614 29.7871 124.228 27.5747L132.615 23.5532L131.446 20.5901L130.275 17.6277L125.159 20.1285C122.346 21.5039 117.266 24.1271 113.872 25.9592C110.478 27.7898 107.009 29.6099 106.164 30.0042C105.318 30.3971 102.384 32.1596 99.6428 33.919L94.6585 37.1181L94.8594 38.2218C94.9702 38.8284 95.7657 40.1523 96.6287 41.1658L98.1971 43.0061L98.5176 42.207ZM416.015 151.705L417.842 150.696L416.92 147.054C416.412 145.05 415.25 141.847 414.335 139.935L412.673 136.46L410.602 137.144C409.464 137.52 408.349 138.352 408.124 138.994C407.899 139.637 408.714 142.808 409.938 146.041C411.162 149.274 412.617 152.099 413.174 152.317C413.731 152.536 415.009 152.26 416.015 151.705ZM151.123 16.8058C154.581 15.7579 157.635 14.3923 157.91 13.7682C158.183 13.1452 157.944 11.7968 157.378 10.7703L156.349 8.90459L153.426 9.58417C151.819 9.95754 148.753 10.8367 146.613 11.5373L142.722 12.8114L143.242 15.5976C143.528 17.1305 144.003 18.4571 144.298 18.5472C144.594 18.6358 147.664 17.8528 151.123 16.8058ZM173.732 11.1089C180.092 9.76151 188.601 8.34056 192.642 7.95076C196.682 7.56096 200.512 7.02756 201.155 6.76477L202.323 6.28725L201.84 3.69957L201.357 1.11288L193.332 1.86825C188.917 2.28339 181.291 3.35645 176.382 4.25291C171.473 5.14897 165.805 6.3188 163.785 6.85095L160.115 7.81952L161.142 10.6891L162.169 13.5586L173.732 11.1089ZM227.721 7.52731L237.734 7.9387L237.993 5.75493C238.135 4.5538 237.973 3.20036 237.634 2.74686L237.016 1.92356L227.467 1.24876C222.215 0.877115 217.387 0.78732 216.739 1.0477L215.56 1.52326L215.868 4.12722C216.037 5.55882 216.52 6.81681 216.941 6.92313C217.363 7.02944 222.213 7.30138 227.721 7.52731ZM335.908 44.6555C336.429 44.4288 337.183 43.4084 337.582 42.3895L338.309 40.5374L336.216 39.1147C335.065 38.3321 332.359 36.5298 330.202 35.1079L326.281 32.5239L325.122 33.792C324.485 34.4891 323.734 35.6482 323.452 36.3669L322.939 37.6738L328.269 41.1049C331.201 42.9922 333.906 44.6562 334.28 44.8027C334.655 44.9497 335.387 44.8837 335.908 44.6555ZM312.944 28.9532L314.284 27.2994L313.745 26.1197L313.207 24.9405L300.594 19.1619L287.98 13.3833L279.915 11.0615L271.85 8.73963L270.786 11.4604L269.721 14.1822L290.662 22.3953L311.603 30.608L312.944 28.9532Z" fill="#E2E2E2"/>
</svg>
