<svg width="501" height="510" viewBox="0 0 501 510" fill="none" xmlns="http://www.w3.org/2000/svg">
<path fill-rule="evenodd" clip-rule="evenodd" d="M78.6876 68.5283C75.1672 71.866 69.2482 77.9313 65.5347 82.0071C61.8205 86.0821 56.3981 92.5139 53.4834 96.2989L48.1846 103.181L51.0857 105.321C52.6804 106.498 54.3314 107.909 54.7541 108.458L55.522 109.456L53.5654 111.859C52.4894 113.18 49.1149 118.304 46.067 123.244C43.0183 128.184 40.1122 132.732 39.6088 133.349L38.6931 134.472L31.1841 130.218L23.6751 125.963L22.4297 126.922C21.7457 127.448 19.6913 130.974 17.8664 134.756C16.0423 138.537 13.6419 143.85 12.5337 146.56L10.5188 151.489L14.6308 153.243C16.8921 154.207 18.7118 155.199 18.6756 155.447C18.6387 155.694 16.4978 162.005 13.9189 169.47C11.3398 176.937 8.10749 188.112 6.73677 194.304C5.36518 200.496 3.49397 211.368 2.57738 218.463C1.66078 225.558 0.776646 238.627 0.613164 247.506C0.448813 256.386 0.707216 268.02 1.18672 273.359C1.66536 278.7 3.49557 290.058 5.25366 298.6C7.01088 307.142 9.5119 317.673 10.8104 322.002C12.1098 326.33 14.6158 333.698 16.3797 338.374C18.1443 343.052 22.121 352.135 25.2176 358.559C28.314 364.985 33.5217 374.686 36.7902 380.119L42.7334 389.998L57.2704 407.951L71.8073 425.904L83.0806 435.911C89.2813 441.414 98.0868 448.649 102.648 451.99C107.209 455.329 116.189 461.185 122.602 465.003C129.015 468.82 139.062 474.166 144.929 476.881C150.795 479.598 161.095 483.745 167.819 486.099C174.542 488.452 184.383 491.465 189.689 492.794C194.995 494.122 202.6 495.765 206.589 496.444C210.578 497.123 216.208 497.923 219.101 498.219L224.36 498.759L224.789 494.34L225.217 489.92L239.825 490.5C247.858 490.819 254.773 491.295 255.191 491.559C255.608 491.822 256.031 495.835 256.13 500.477L256.311 508.917L257.481 509.359C258.125 509.603 262.917 509.533 268.129 509.203C273.341 508.872 279.344 508.285 281.47 507.897L285.335 507.191L284.684 505.281C284.326 504.231 284.026 502.264 284.02 500.91L284.007 498.448L301.139 494.879L318.269 491.31L329.842 487.291C336.206 485.081 346.025 481.251 351.662 478.781C357.298 476.31 366.958 471.542 373.128 468.186L384.346 462.083L403.407 447.289L422.467 432.495L432.184 421.943C437.528 416.139 445.662 406.416 450.258 400.337C454.854 394.257 461.45 384.532 464.915 378.725C468.38 372.917 474.034 362.033 477.48 354.539C480.925 347.044 485.225 336.44 487.034 330.973C488.844 325.507 490.947 318.697 491.707 315.84C492.467 312.983 494.091 305.73 495.315 299.723C496.539 293.716 498.151 283.445 498.897 276.899C499.642 270.354 500.326 260.894 500.416 255.878C500.506 250.861 500.117 240.262 499.553 232.323C498.989 224.385 497.737 213.17 496.771 207.402C495.805 201.632 493.705 192.039 492.103 186.083C490.501 180.128 487.508 170.606 485.454 164.925C483.398 159.244 480.969 153.365 480.057 151.861L478.396 149.127L474.442 150.886L470.486 152.645L469.555 150.413C469.043 149.186 466.098 143.587 463.008 137.972C459.92 132.357 457.151 127.132 456.855 126.362L456.315 124.962L463.08 120.7C466.8 118.355 470.262 116.196 470.774 115.9L471.705 115.364L468.962 110.555C467.453 107.911 463.936 102.713 461.148 99.0032L456.079 92.2591L452.179 94.8342L448.28 97.4102L439.018 86.5478L429.756 75.6847L421.622 68.1059C417.148 63.9378 408.254 56.4588 401.859 51.4861L390.23 42.4451L378.511 35.5493C372.065 31.7571 361.479 26.203 354.988 23.2066C348.496 20.2109 337.393 15.8344 330.316 13.4803C323.237 11.126 312.675 8.06424 306.843 6.67785C301.011 5.28992 290.038 3.37808 282.457 2.42871C274.877 1.4802 262.607 0.628227 255.191 0.535594C247.775 0.444498 239.118 0.493667 235.953 0.646247C232.787 0.798828 227.015 1.2697 223.125 1.69234C219.235 2.11431 209.817 3.66285 202.195 5.13331C194.573 6.6029 183.507 9.3056 177.604 11.139C171.702 12.9717 162.728 16.0976 157.663 18.0847C152.598 20.0726 143.655 24.1425 137.787 27.1301C131.921 30.1171 122.765 35.2792 117.44 38.6025L107.757 44.644L96.4228 53.5516C90.1887 58.4505 82.208 65.1905 78.6876 68.5283ZM119.651 42.4972C125.264 38.9869 135.484 33.3119 142.363 29.8874L154.87 23.6607L167.935 19.0591C175.122 16.5286 185.482 13.4017 190.958 12.1111C196.435 10.8204 204.884 9.02991 209.736 8.13267C214.588 7.23455 225.985 6.03432 235.064 5.46374L251.571 4.42584L266.981 5.40106L282.39 6.37476L294.579 8.78189C301.283 10.1059 311.004 12.3591 316.179 13.7883C321.356 15.2184 327.508 17.1579 329.851 18.0979L334.111 19.8083L334.246 21.1336C334.321 21.862 333.916 22.8158 333.346 23.253L332.31 24.048L326.535 21.9214C323.36 20.7518 314.91 18.381 307.759 16.6539C300.609 14.9262 289.651 12.8358 283.411 12.0077C277.17 11.1797 266.917 10.2892 260.628 10.0288C254.338 9.76835 244.942 9.69795 239.749 9.8727C234.555 10.0466 224.662 10.9484 217.764 11.8766C210.867 12.8048 200.502 14.7119 194.731 16.1144C188.96 17.5168 180.036 20.0814 174.9 21.8145C169.764 23.5475 162.018 26.4298 157.688 28.2208C153.357 30.0109 145.106 33.8559 139.354 36.7662L128.894 42.0566L110.211 55.6454L91.529 69.2349L83.2508 77.2571C78.698 81.6703 74.2569 86.1691 73.3809 87.2571L71.7886 89.234L70.1191 87.0647L68.4495 84.8954L76.1796 77.4072C80.4313 73.288 85.1762 68.7325 86.7235 67.2814C88.2715 65.8313 94.017 61.0979 99.4919 56.7626L109.447 48.8797L119.651 42.4972ZM124.383 50.5801L132.597 45.0693L144.871 38.9289C151.622 35.5527 161.344 31.1915 166.475 29.2381C171.606 27.2847 182.032 24.0694 189.644 22.0916C197.257 20.1148 205.984 18.1032 209.038 17.621C212.093 17.1397 218.957 16.2025 224.292 15.5386C229.626 14.8746 240.411 14.2508 248.257 14.1523L262.523 13.973L276.972 15.7187C284.92 16.6782 294.252 18.0621 297.71 18.793C301.167 19.5238 308.508 21.3475 314.021 22.8464C319.535 24.3447 329.41 27.6691 335.968 30.2338C342.525 32.7986 350.381 36.0939 353.424 37.5575C356.467 39.0212 362.878 42.4951 367.669 45.2772C372.46 48.0601 379.791 52.6932 383.96 55.5742C388.129 58.4545 393.789 62.5057 396.539 64.5755C399.288 66.6461 405.963 72.4075 411.371 77.3791L421.204 86.4185L431.77 99.0452L442.336 111.672L449.358 122.875C453.22 129.037 458.347 137.888 460.753 142.544C463.159 147.2 465.204 151.758 465.299 152.674L465.469 154.339L458.49 157.737L451.512 161.132L455.438 171.759L459.364 182.384L461.332 182.024C462.415 181.825 465.911 180.739 469.099 179.609L474.898 177.556L476.034 180.17C476.659 181.606 478.53 188.464 480.193 195.408C481.856 202.352 483.823 213.565 484.564 220.326C485.305 227.086 486.053 233.632 486.227 234.872C486.399 236.112 486.555 240.766 486.573 245.212C486.59 249.66 486.559 254.857 486.503 256.762C486.447 258.668 486.162 263.573 485.868 267.662C485.575 271.751 484.65 279.854 483.812 285.669C482.974 291.484 480.717 302.29 478.795 309.683C476.874 317.077 473.606 327.765 471.534 333.434C469.462 339.104 464.911 349.35 461.42 356.204C457.929 363.057 451.929 373.505 448.088 379.421C444.247 385.338 438.552 393.336 435.433 397.195C432.314 401.055 426.579 407.763 422.689 412.104L415.615 419.996L393.887 436.718L372.159 453.441L362.716 458.253C357.521 460.899 348.64 465.072 342.979 467.526C337.319 469.98 327.13 473.734 320.339 475.87L307.99 479.752L293.237 482.446C285.123 483.927 272.944 485.499 266.173 485.94C259.401 486.381 249.998 486.578 245.277 486.377C240.555 486.176 234.161 485.764 231.068 485.462L225.444 484.912L226.441 476.861L227.438 468.811L216.54 467.128C210.545 466.202 205.25 465.54 204.771 465.656C204.293 465.772 203.182 469.278 202.303 473.45L200.703 481.033L194.649 479.8C191.319 479.12 183.01 476.635 176.185 474.276C169.361 471.917 162.329 469.516 160.559 468.939C158.789 468.362 152.237 465.309 145.998 462.155C139.759 459 131.584 454.573 127.832 452.317C124.079 450.061 118.386 446.346 115.18 444.063C111.974 441.78 106.116 437.36 102.162 434.244C98.2087 431.126 91.0165 424.829 86.179 420.25L77.3841 411.925L63.9809 394.562L50.5777 377.199L45.3983 368.038C42.549 363 37.8593 353.531 34.9756 346.997C32.092 340.463 28.0051 329.907 25.8935 323.541C23.7819 317.174 20.8312 306.379 19.3379 299.551C17.8431 292.723 16.126 281.59 15.5229 274.809C14.9182 268.028 14.3322 260.371 14.2196 257.793C14.107 255.216 14.222 247.027 14.4746 239.596L14.9345 226.086L17.0459 213.825C18.2069 207.082 20.1139 197.647 21.2847 192.858C22.454 188.07 24.4636 180.971 25.7496 177.082C27.0347 173.193 30.2623 164.746 32.9201 158.309C35.5778 151.873 40.0823 142.351 42.9303 137.151C45.7776 131.949 50.571 124.017 53.5827 119.524L59.0578 111.353L64.7957 115.503C67.9529 117.786 71.1048 119.742 71.8018 119.849L73.0699 120.044L79.9326 111.691L86.7947 103.337L85.0173 101.071C84.0386 99.8245 81.5112 97.384 79.4004 95.6484L75.5633 92.4915L76.1025 91.0649C76.3994 90.28 80.6433 85.8486 85.5356 81.2184C90.4272 76.5874 96.2919 71.1727 98.5683 69.1855C100.845 67.1991 105.737 63.4401 109.438 60.8321C113.14 58.225 119.865 53.6113 124.383 50.5801ZM11.3352 291.616L12.9765 291.467L15.233 301.396C16.4756 306.857 18.4471 314.637 19.6164 318.684C20.7857 322.732 23.314 330.127 25.2347 335.119C27.1564 340.11 30.1941 347.371 31.987 351.254C33.779 355.138 37.644 362.634 40.5759 367.914C43.5071 373.194 49.6278 382.862 54.1782 389.4L62.451 401.286L72.5457 412.194L82.6413 423.102L93.1727 432.295L103.705 441.488L116.634 450.208L129.564 458.928L144.458 466.162C152.649 470.141 163.514 474.863 168.602 476.654C173.69 478.447 182.765 481.207 188.768 482.789L199.683 485.666L199.179 487.894L198.676 490.121L193.78 489.075C191.088 488.499 184.259 486.608 178.603 484.871C172.948 483.134 165.088 480.465 161.136 478.939C157.185 477.413 147.898 473.223 140.501 469.626L127.051 463.089L114.305 454.497L101.561 445.906L91.3528 437.156C85.7379 432.343 77.8026 424.93 73.719 420.681L66.294 412.958L55.6264 399.097L44.9588 385.236L38.0893 373.444L31.2192 361.651L25.3742 348.159C22.1603 340.737 17.9897 329.623 16.1073 323.461C14.2248 317.298 11.7548 307.833 10.619 302.428C9.48241 297.024 8.80949 292.413 9.12338 292.183C9.43793 291.953 10.4331 291.698 11.3352 291.616ZM482.558 175.398L484.366 175.232L485.789 180.157C486.571 182.865 487.861 187.695 488.655 190.89C489.448 194.085 490.964 201.326 492.022 206.981C493.081 212.636 494.444 224.665 495.051 233.712L496.154 250.162L495.354 263.925C494.913 271.495 493.929 281.806 493.167 286.838C492.404 291.87 490.598 300.923 489.151 306.956C487.705 312.989 484.592 323.643 482.234 330.63L477.946 343.335L471.238 357.012C467.551 364.535 461.492 375.545 457.775 381.479C454.059 387.414 448.658 395.273 445.774 398.944C442.891 402.615 438.051 408.464 435.02 411.943C431.988 415.421 426.682 421.069 423.23 424.496C419.777 427.921 414.875 432.476 412.336 434.616L407.721 438.509L406.115 436.953L404.51 435.396L414.402 426.142L424.295 416.888L433.27 406.499L442.246 396.109L450.14 384.364L458.035 372.618L465.644 357.33L473.253 342.042L477.678 328.91C480.111 321.688 483.16 311.488 484.452 306.244C485.744 301.001 487.553 291.326 488.47 284.747C489.389 278.166 490.402 266.664 490.724 259.185C491.045 251.707 490.929 239.954 490.466 233.067L489.623 220.548L486.801 206.134C485.249 198.207 483.224 189.187 482.302 186.092C481.379 182.996 480.342 179.59 479.998 178.523C479.654 177.456 479.683 176.354 480.062 176.073C480.441 175.794 481.564 175.49 482.558 175.398Z" fill="#E2E2E2"/>
</svg>
