<svg width="429" height="426" viewBox="0 0 429 426" fill="none" xmlns="http://www.w3.org/2000/svg">
<path fill-rule="evenodd" clip-rule="evenodd" d="M122.237 404.312L123.572 402.481L122.95 401.651C122.608 401.195 118.914 398.914 114.742 396.58C110.568 394.247 103.455 389.855 98.9322 386.821L90.7085 381.302L89.6785 381.489C89.1126 381.593 88.0499 382.5 87.3162 383.506L85.985 385.335L89.2982 387.854C91.1202 389.24 97.7673 393.447 104.069 397.204C110.37 400.961 116.736 404.51 118.215 405.089L120.904 406.144L122.237 404.312ZM175.742 424.716C176.377 424.749 178.298 424.997 180.011 425.266L183.126 425.756L183.318 423.22C183.423 421.826 183.44 420.487 183.353 420.247C183.268 420.006 180.18 419.261 176.491 418.592L169.786 417.375L168.837 419.795L167.888 422.215L171.238 423.435C173.081 424.107 175.107 424.683 175.742 424.716ZM77.4764 376.398C77.7063 375.812 78.4082 374.77 79.0357 374.083L80.1759 372.834L74.821 368.026L69.4655 363.218L67.9923 364.298C67.1821 364.892 66.2905 365.943 66.0086 366.634L65.4983 367.89L68.6953 371.003C70.4526 372.716 73.0548 374.87 74.4753 375.79L77.0588 377.463L77.4764 376.398ZM63.9924 362.662C64.9838 361.816 65.8817 360.905 65.9874 360.636C66.0927 360.367 62.3626 355.709 57.6992 350.286C53.0348 344.863 47.4589 337.877 45.3072 334.76L41.3957 329.096L39.6197 329.683C38.6427 330.006 37.6016 330.885 37.3065 331.638L36.7699 333.006L41.0815 339.302C43.4531 342.765 48.1303 348.75 51.4741 352.603C54.819 356.456 58.598 360.64 59.8725 361.902L62.1896 364.198L63.9924 362.662ZM30.4768 318.555C31.3779 318.161 32.3235 317.309 32.5778 316.661L33.0403 315.482L28.4668 306.489L23.8934 297.496L21.1786 298.847L18.4627 300.196L22.3972 308.133C24.56 312.497 26.8951 316.789 27.5841 317.67L28.8378 319.27L30.4768 318.555ZM309.22 406.133C312.403 404.431 315.19 402.573 315.413 402.004C315.636 401.435 315.188 400.135 314.417 399.114L313.017 397.258L307.219 400.286C304.03 401.951 301.226 403.771 300.988 404.331C300.748 404.892 301.201 406.223 301.993 407.289L303.433 409.229L309.22 406.133ZM330.66 393.795C332.231 392.994 336.344 390.314 339.8 387.839C343.257 385.364 350.089 379.88 354.983 375.652L363.881 367.965L362.537 365.847C361.797 364.682 360.814 363.581 360.352 363.399C359.89 363.218 357.279 365.227 354.548 367.865C351.817 370.501 345.411 375.809 340.311 379.658C335.21 383.506 329.769 387.422 328.218 388.359C326.666 389.296 325.285 390.349 325.148 390.699C325.01 391.05 325.551 392.218 326.351 393.294L327.804 395.25L330.66 393.795ZM9.90193 267.095C11.1088 266.907 12.2845 266.276 12.514 265.691C12.7434 265.106 11.8435 258.816 10.5133 251.712C9.18452 244.608 7.84266 235.119 7.53246 230.624L6.96917 222.451L5.73894 221.986C5.06249 221.731 3.65105 221.687 2.60357 221.889L0.697724 222.254L1.73474 234.103C2.30583 240.619 3.79057 250.765 5.03598 256.649C6.28241 262.533 7.39221 267.366 7.50379 267.391C7.61577 267.415 8.69507 267.282 9.90193 267.095ZM5.18123 208.909L6.92996 208.571L7.28243 201.8L7.63525 195.028L6.28819 194.206C5.54769 193.755 4.21423 193.532 3.32588 193.713L1.71105 194.039L1.45741 197.984C1.31769 200.155 1.18348 203.38 1.15899 205.152L1.11561 208.375L2.27326 208.811C2.91094 209.051 4.21896 209.095 5.18123 208.909ZM390.724 335.598C393.061 332.115 395.83 327.948 396.876 326.337L398.78 323.408L396.687 321.884L394.594 320.36L393.663 320.84C393.15 321.103 390.329 325.019 387.392 329.543C384.456 334.067 382.175 338.009 382.324 338.305C382.471 338.601 383.466 339.538 384.534 340.387L386.475 341.929L390.724 335.598ZM413.275 291.465L420.533 272.142L418.065 270.827L415.598 269.51L408.217 288.758L400.836 308.005L403.427 309.397L406.019 310.788L413.275 291.465ZM421.172 267.253L422.062 266.585L423.416 259.886L424.77 253.188L422.184 252.174L419.598 251.16L418.14 256.772C417.338 259.859 416.371 263.192 415.99 264.175L415.298 265.966L417.79 266.943L420.283 267.921L421.172 267.253ZM423.981 240.257L426.519 240.733L427.084 237.217C427.395 235.284 427.841 229.898 428.076 225.25C428.311 220.602 428.473 213.25 428.436 208.911L428.368 201.024L426.953 200.163C426.175 199.69 424.769 199.458 423.827 199.647L422.115 199.992L422.123 213.408C422.127 220.787 421.85 229.762 421.506 233.354C421.162 236.945 421.008 239.86 421.163 239.832C421.317 239.805 422.586 239.996 423.981 240.257ZM99.0216 42.1279C99.1977 41.688 103.166 39.1212 107.842 36.4231C112.518 33.725 120.118 29.708 124.732 27.4956L133.119 23.4741L131.95 20.511L130.779 17.5485L125.663 20.0494C122.85 21.4248 117.77 24.048 114.376 25.8801C110.982 27.7107 107.513 29.5308 106.668 29.9251C105.822 30.318 102.888 32.0805 100.147 33.8399L95.1625 37.039L95.3634 38.1427C95.4742 38.7493 96.2697 40.0732 97.1328 41.0867L98.7012 42.927L99.0216 42.1279ZM416.519 151.626L418.346 150.617L417.424 146.975C416.917 144.971 415.754 141.768 414.839 139.856L413.177 136.381L411.106 137.065C409.968 137.441 408.853 138.273 408.628 138.915C408.403 139.558 409.218 142.729 410.442 145.962C411.666 149.195 413.121 152.02 413.678 152.238C414.235 152.456 415.513 152.181 416.519 151.626ZM151.627 16.7267C155.085 15.6788 158.139 14.3132 158.414 13.6891C158.687 13.0661 158.448 11.7177 157.882 10.6912L156.853 8.82549L153.93 9.50506C152.323 9.87845 149.257 10.7576 147.117 11.4582L143.226 12.7323L143.746 15.5185C144.032 17.0513 144.507 18.378 144.802 18.4681C145.098 18.5567 148.168 17.7737 151.627 16.7267ZM174.236 11.0298C180.596 9.68242 189.105 8.26146 193.146 7.87166C197.186 7.48186 201.017 6.94844 201.659 6.68568L202.827 6.20814L202.344 3.62047L201.861 1.03377L193.836 1.78916C189.421 2.2043 181.795 3.27735 176.886 4.17382C171.977 5.06985 166.309 6.23969 164.289 6.77186L160.619 7.74043L161.646 10.61L162.673 13.4795L174.236 11.0298ZM228.225 7.4482L238.238 7.85959L238.497 5.67583C238.639 4.47471 238.477 3.12125 238.138 2.66776L237.52 1.84445L227.971 1.16968C222.719 0.79802 217.891 0.708224 217.243 0.968588L216.064 1.44416L216.372 4.04812C216.541 5.47972 217.024 6.73771 217.445 6.84403C217.867 6.95034 222.717 7.22226 228.225 7.4482ZM336.412 44.5764C336.933 44.3497 337.687 43.3293 338.086 42.3104L338.813 40.4583L336.72 39.0356C335.569 38.253 332.863 36.4507 330.706 35.0288L326.785 32.4448L325.626 33.7129C324.989 34.41 324.238 35.5691 323.956 36.2879L323.443 37.5947L328.774 41.0258C331.705 42.9131 334.41 44.5771 334.784 44.7237C335.159 44.8706 335.891 44.8046 336.412 44.5764ZM313.448 28.8741L314.788 27.2203L314.249 26.0406L313.711 24.8614L301.098 19.0828L288.484 13.3042L280.419 10.9824L272.354 8.66053L271.29 11.3813L270.225 14.1031L291.166 22.3162L312.107 30.5289L313.448 28.8741Z" fill="#E2E2E2"/>
</svg>
