<svg width="465" height="460" viewBox="0 0 465 460" fill="none" xmlns="http://www.w3.org/2000/svg">
<path fill-rule="evenodd" clip-rule="evenodd" d="M76.4639 61.8451L75.8633 63.4905L77.4355 64.8824L79.0076 66.2742L82.9074 63.2728L86.8062 60.2721L85.2414 57.6707L83.6774 55.0686L80.3701 57.6348C78.5518 59.0466 76.7935 60.941 76.4639 61.8451ZM92.187 51.9792L93.8593 54.1519L95.4478 53.0692C96.3207 52.4735 98.2544 51.1416 99.7433 50.1092L102.45 48.232L100.886 45.6305L99.3216 43.0284L94.9178 46.4177L90.5148 49.8064L92.187 51.9792ZM124.168 31.0154L125.68 33.7196L131.24 30.925C134.3 29.3885 137.773 27.665 138.959 27.0952L141.117 26.0584L139.852 23.5515L138.588 21.0448L137.588 21.1477C137.038 21.2043 133.453 22.8397 129.621 24.7816L122.654 28.312L124.168 31.0154ZM140.885 22.3519C141.413 23.5999 142.293 24.7906 142.842 24.9981C143.39 25.2047 144.571 24.8103 145.467 24.1206L147.095 22.8678L146.26 20.5694L145.424 18.2717L143.67 18.432C142.706 18.5207 141.468 18.9281 140.92 19.337L139.925 20.0825L140.885 22.3519ZM157.882 15.9715L158.741 18.3348L160.034 18.4867C160.745 18.5707 162.562 18.0955 164.073 17.432L166.818 16.2253L165.96 13.8621L165.102 11.4989L163.808 11.3469C163.098 11.263 161.281 11.7381 159.77 12.4017L157.024 13.6083L157.882 15.9715ZM197.88 5.83332C198.097 7.13866 198.535 8.54545 198.854 8.96002C199.173 9.37459 201.96 9.19075 205.048 8.55413L210.662 7.39402L210.602 4.98226C210.57 3.65486 210.373 2.34817 210.165 2.07788C209.956 1.80671 207.184 1.87914 204.005 2.23942C200.825 2.59816 198.058 3.02 197.855 3.17653C197.652 3.33238 197.664 4.5273 197.88 5.83332ZM12.0793 162.822L12.217 164.161L14.2408 164.619C15.3546 164.87 16.8044 164.661 17.4623 164.154L18.6599 163.233L18.0459 162.435C17.7081 161.996 16.7183 161.201 15.8461 160.668L14.2603 159.699L13.1009 160.591C12.463 161.082 12.0039 162.086 12.0793 162.822ZM9.12524 173.247L9.29054 174.861L11.6283 175.165L13.967 175.469L14.7337 174.331L15.5012 173.194L12.2298 172.413L8.95927 171.633L9.12524 173.247ZM231.009 4.06253L231.432 6.6115L236.956 6.92554L242.479 7.24025L243.111 6.20578C243.46 5.63725 243.635 4.0616 243.501 2.70455L243.26 0.237102L237.591 0.361608C234.472 0.429589 231.62 0.716695 231.253 0.99897C230.886 1.28124 230.776 2.65976 231.009 4.06253ZM5.58783 188.46L5.7146 189.691L8.18727 190.611C9.54769 191.118 10.9335 191.322 11.269 191.064C11.6036 190.806 11.8205 190.041 11.7513 189.365L11.6245 188.134L9.15186 187.214C7.79143 186.707 6.4056 186.503 6.07012 186.761C5.73551 187.019 5.51865 187.784 5.58783 188.46ZM4.96712 192.873L5.0855 194.03L7.41369 194.709L9.74186 195.387L10.5356 194.21L11.3295 193.032L8.08901 192.375L4.84788 191.717L4.96712 192.873ZM253.928 5.03161L253.848 7.20231L254.799 7.32691L255.75 7.44999L256.229 5.33114C256.492 4.1657 256.443 2.86901 256.121 2.4501C255.797 2.03031 255.19 1.95122 254.77 2.27429C254.351 2.5967 253.972 3.83774 253.928 5.03161ZM3.32012 199.92L3.44983 201.176L5.74052 202.209C7.00146 202.777 8.33173 203.012 8.69676 202.731C9.06265 202.449 9.46554 201.421 9.59248 200.446L9.82334 198.672L7.72919 197.728L5.63504 196.784L4.41307 197.724C3.74124 198.241 3.24967 199.23 3.32012 199.92ZM273.823 8.36925L273.588 11.3182L274.353 10.685C274.775 10.3371 275.404 9.00591 275.751 7.7271C276.098 6.4483 276.191 5.15202 275.956 4.84609C275.72 4.54016 275.197 4.54405 274.793 4.85509C274.389 5.16613 273.952 6.74767 273.823 8.36925ZM1.47598 221.691L1.31266 224.045L4.58041 224.126L7.84901 224.207L7.72319 221.413L7.59718 218.62L5.04911 218.64C3.64796 218.65 2.30684 218.811 2.07051 218.999C1.83351 219.185 1.56627 220.397 1.47598 221.691ZM1.67542 236.061C2.29659 236.479 3.75894 236.732 4.92589 236.623L7.04596 236.425L7.18497 235.363L7.32247 234.301L5.20363 233.823C4.03819 233.56 2.51379 233.784 1.81502 234.322L0.545229 235.299L1.67542 236.061ZM1.69013 244.857L2.23128 246.671L4.74814 246.999L7.26586 247.327L7.57821 244.928L7.89055 242.529L4.51953 242.784L1.14918 243.041L1.69013 244.857ZM3.41528 262.104C3.7698 262.564 5.21265 262.751 6.62023 262.517L9.17884 262.092L9.31158 261.073L9.44433 260.053L6.80976 260.118C5.36153 260.153 3.85968 260.426 3.47292 260.724C3.08616 261.022 3.0601 261.642 3.41528 262.104ZM319.388 21.2705L318.64 22.5455L319.573 23.7579L320.506 24.9704L321.917 22.3082C322.693 20.8444 323.075 19.3175 322.766 18.916C322.458 18.5153 321.74 18.594 321.171 19.0915C320.603 19.5884 319.801 20.5695 319.388 21.2705ZM334.235 27.0743L333.374 29.1027L334.344 30.3638L335.314 31.624L337.08 30.2655L338.846 28.9063L338.32 27.1423L337.795 25.3778L336.445 25.2114L335.095 25.0459L334.235 27.0743ZM342.837 33.2344L342.137 35.6387L343.278 35.5003L344.419 35.3626L345.806 33.1189L347.193 30.8742L346.502 29.9773L345.812 29.0804L344.674 29.956C344.049 30.4376 343.221 31.9127 342.837 33.2344ZM353.03 39.6164L352.349 40.7892L354.099 42.1439L355.848 43.4993L357.868 41.9441L359.888 40.3896L359.768 39.2228L359.648 38.056L358.054 37.0821L356.46 36.1082L355.085 37.2759C354.328 37.9179 353.404 38.9714 353.03 39.6164ZM15.095 309.647L15.7324 310.475L18.2644 309.197L20.7962 307.921L19.7278 307.195L18.6595 306.469L16.5586 307.643L14.4575 308.818L15.095 309.647ZM370.977 52.3994L370.407 53.9666L372.138 55.0241L373.87 56.0824L374.76 54.6255C375.249 53.8251 376.009 52.8933 376.448 52.5555L377.246 51.9414L375.908 50.2032L374.57 48.4649L373.059 49.6486C372.229 50.2999 371.291 51.5378 370.977 52.3994ZM22.1668 327.826L22.7581 328.594L25.2506 327.338L27.7432 326.081L27.2381 325.425C26.9605 325.064 25.9324 325.008 24.9528 325.3C23.9733 325.592 22.8129 326.107 22.374 326.445C21.9351 326.782 21.8424 327.405 22.1668 327.826ZM377.535 55.4638L375.869 57.3452L376.733 58.4681L377.597 59.591L379.45 57.5033L381.303 55.4156L380.378 54.2127C379.869 53.5522 379.396 53.1387 379.326 53.2962C379.257 53.4537 378.45 54.4287 377.535 55.4638ZM380.324 61.3356L381.416 62.7549L383.404 60.7864L385.392 58.8188L384.723 57.9496L384.055 57.0805L381.643 58.4989L379.232 59.9164L380.324 61.3356ZM28.004 338.543L27.5864 339.732L30.5054 344.751L33.4244 349.77L36.0621 347.74L38.699 345.711L37.1104 343.646C36.2368 342.511 34.857 340.237 34.0453 338.59L32.568 335.599L30.4941 336.476L28.4209 337.353L28.004 338.543ZM391.505 72.2672L392.586 73.6717L394.138 71.6426C394.992 70.5275 395.979 69.3828 396.333 69.1005C396.687 68.8173 396.675 68.1955 396.307 67.7175L395.638 66.8484L393.031 68.8551L390.423 70.8618L391.505 72.2672ZM398.945 80.1365C399.476 80.8257 400.386 81.34 400.969 81.2805C401.552 81.2204 402.708 80.2948 403.538 79.2234L405.047 77.2755L404.121 76.0727L403.196 74.8707L400.589 76.8774L397.982 78.8841L398.945 80.1365ZM48.1341 372.355L51.813 377.135L54.4204 375.129L57.0277 373.122L53.3488 368.342L49.6699 363.562L47.0625 365.568L44.4552 367.575L48.1341 372.355ZM75.5783 401.4C75.6442 401.921 76.8693 403.468 78.3017 404.84L80.9049 407.334L82.3167 406.227C83.0938 405.616 83.9817 404.425 84.2898 403.578L84.85 402.038L82.1681 399.697L79.4848 397.356L77.4719 398.905C76.3646 399.757 75.5123 400.88 75.5783 401.4ZM92.8549 412.93L91.6403 414.499L93.263 416.607L94.8865 418.716L96.3974 417.533C97.2283 416.881 98.1507 415.682 98.446 414.868L98.9845 413.387L97.0003 411.85C95.9083 411.005 94.8032 410.549 94.5427 410.838C94.2831 411.126 93.524 412.068 92.8549 412.93ZM97.5131 419.301L97.6286 420.433L102.857 423.838C105.732 425.711 108.888 427.714 109.871 428.289C110.854 428.863 111.933 429.124 112.269 428.865C112.604 428.607 113.184 427.35 113.556 426.071L114.232 423.748L107.721 419.49L101.211 415.233L99.303 416.701C98.254 417.509 97.4488 418.678 97.5131 419.301ZM453.606 186.892L454.465 191.738L456.806 191.349C458.093 191.136 459.491 190.696 459.912 190.372C460.332 190.048 460.252 187.803 459.735 185.382L458.792 180.982L456.385 181.04C455.061 181.073 453.701 181.313 453.363 181.573C453.024 181.834 453.134 184.227 453.606 186.892ZM137.346 440.421L136.673 442.733L140.685 444.771C142.892 445.891 145.043 446.543 145.463 446.219C145.884 445.896 146.674 444.642 147.218 443.435L148.208 441.239L143.799 439.147C141.374 437.996 139.082 437.291 138.705 437.582C138.327 437.872 137.716 439.149 137.346 440.421ZM456.545 206.074L457.243 210.346L459.364 210.824C460.53 211.088 461.921 210.959 462.456 210.54L463.428 209.774L463.041 205.005L462.655 200.235L460.191 200.295C458.836 200.329 457.304 200.682 456.787 201.08L455.847 201.803L456.545 206.074ZM155.896 446.74C155.351 448.009 154.853 449.276 154.789 449.553C154.726 449.83 156.601 450.785 158.957 451.676L163.242 453.295L164.369 452.428C164.988 451.951 165.53 450.618 165.572 449.464L165.649 447.368L161.394 445.761C159.054 444.877 157.082 444.216 157.012 444.292C156.944 444.368 156.441 445.47 155.896 446.74ZM457.599 246.951L457.078 255.064L460.122 255.46L463.165 255.856L463.879 247.433L464.592 239.011L461.864 238.516C460.364 238.244 458.908 238.206 458.628 238.431C458.349 238.656 457.886 242.49 457.599 246.951ZM456.363 259.655L456.206 262.67L458.707 262.652C460.083 262.641 461.72 262.26 462.343 261.804L463.479 260.974L462.947 259.192L462.416 257.409L459.469 257.026L456.52 256.642L456.363 259.655ZM453.475 278.403L452.74 281.688L454.268 282.622C455.109 283.136 456.588 283.32 457.554 283.032L459.31 282.51L459.827 279.653C460.112 278.081 460.07 276.438 459.733 276C459.395 275.562 458.13 275.074 456.922 274.918C455.714 274.76 454.609 274.741 454.467 274.875C454.327 275.009 453.88 276.597 453.475 278.403ZM440.244 320.122L438.459 325.207L440.852 326.48C442.168 327.18 443.527 327.535 443.872 327.27C444.217 327.004 445.54 324.359 446.813 321.391L449.128 315.995L446.532 315.109C445.104 314.622 443.507 314.407 442.983 314.63C442.459 314.854 441.227 317.324 440.244 320.122ZM279.371 455.166C279.588 456.472 280.086 457.957 280.478 458.466L281.191 459.393L282.871 458.1L284.55 456.807L283.768 454.654L282.985 452.501L281.769 452.041C281.1 451.788 280.197 451.854 279.764 452.187C279.331 452.52 279.155 453.86 279.371 455.166ZM291.407 452.823C291.624 454.128 291.971 455.418 292.179 455.688C292.387 455.959 293.145 455.729 293.862 455.177L295.165 454.173L294.551 453.376C294.213 452.937 293.698 451.776 293.406 450.797L292.876 449.016L291.944 449.733C291.432 450.127 291.19 451.517 291.407 452.823ZM424.855 349.85L422.612 353.717L424.582 355.116C425.665 355.885 426.821 356.564 427.147 356.623C427.475 356.684 428.864 355.15 430.234 353.215C431.604 351.28 432.991 348.944 433.316 348.026L433.908 346.355L431.901 344.959L429.893 343.563L428.496 344.773C427.728 345.439 426.089 347.723 424.855 349.85ZM305.34 447.613C305.677 448.052 306.193 449.213 306.484 450.192L307.015 451.973L308.846 450.564L310.677 449.154L309.005 446.982L307.333 444.809L306.029 445.812L304.726 446.816L305.34 447.613ZM310.921 446.956L312.069 449.596L313.106 449.732L314.144 449.866L313.968 447.966C313.872 446.92 313.271 445.376 312.636 444.533L311.478 443.002L310.626 443.659L309.773 444.315L310.921 446.956ZM417.901 365.94L419.988 367.794L420.757 367.202C421.178 366.878 421.248 366.253 420.91 365.814C420.572 365.375 419.582 364.58 418.71 364.047C417.838 363.514 416.83 363.305 416.469 363.582L415.813 364.087L417.901 365.94ZM315.58 443.536C315.506 444.1 315.998 445.278 316.673 446.155L317.899 447.748L319.637 446.411L321.375 445.073L320.761 444.275C320.423 443.836 319.908 442.676 319.616 441.696L319.086 439.915L317.4 441.213C316.472 441.927 315.653 442.973 315.58 443.536ZM404.37 380.16C404.864 380.732 406.145 381.728 407.219 382.373L409.17 383.547L409.037 382.252L408.904 380.956L406.956 379.448C405.885 378.617 404.663 378.205 404.24 378.53C403.819 378.854 403.877 379.588 404.37 380.16ZM335.344 436.25L336.944 438.33L338.734 437.796L340.524 437.263L340.939 436.166L341.354 435.069L339.721 432.947L338.089 430.826L335.916 432.498L333.743 434.17L335.344 436.25ZM348.412 428.657C348.939 429.905 349.828 431.099 350.387 431.311L351.404 431.695L351.828 430.572L352.252 429.449L350.62 427.328L348.987 425.206L348.219 425.797C347.797 426.122 347.883 427.409 348.412 428.657ZM356.033 424.175C356.561 425.423 357.417 426.605 357.937 426.801L358.881 427.158L359.78 425.686L360.679 424.215L359.078 422.135L357.478 420.055L356.276 420.98L355.073 421.906L356.033 424.175ZM368.927 412.204C368.857 412.745 369.501 414.099 370.36 415.215L371.921 417.243L373.224 416.24L374.528 415.236L372.895 413.115L371.262 410.993L370.158 411.107L369.055 411.22L368.927 412.204Z" fill="#E2E2E2"/>
</svg>
