<svg width="465" height="460" viewBox="0 0 465 460" fill="none" xmlns="http://www.w3.org/2000/svg">
<path fill-rule="evenodd" clip-rule="evenodd" d="M76.8721 62.3693L76.2715 64.0147L77.8437 65.4065L79.4158 66.7983L83.3156 63.797L87.2144 60.7963L85.6496 58.1949L84.0856 55.5928L80.7783 58.159C78.96 59.5708 77.2017 61.4651 76.8721 62.3693ZM92.5952 52.5033L94.2675 54.6761L95.856 53.5933C96.7289 52.9976 98.6627 51.6658 100.152 50.6333L102.859 48.7562L101.294 46.1547L99.7298 43.5526L95.326 46.9419L90.923 50.3305L92.5952 52.5033ZM124.576 31.5396L126.088 34.2437L131.649 31.4492C134.708 29.9127 138.181 28.1891 139.367 27.6194L141.525 26.5826L140.26 24.0757L138.996 21.569L137.996 21.6718C137.446 21.7285 133.861 23.3639 130.029 25.3058L123.063 28.8362L124.576 31.5396ZM141.294 22.8761C141.821 24.124 142.701 25.3148 143.25 25.5223C143.798 25.7289 144.979 25.3345 145.875 24.6448L147.503 23.392L146.668 21.0936L145.833 18.7959L144.078 18.9561C143.114 19.0449 141.876 19.4523 141.329 19.8612L140.333 20.6067L141.294 22.8761ZM158.29 16.4957L159.149 18.8589L160.442 19.0109C161.153 19.0948 162.97 18.6197 164.481 17.9562L167.227 16.7495L166.368 14.3863L165.51 12.023L164.217 11.8711C163.506 11.7872 161.689 12.2623 160.178 12.9258L157.432 14.1325L158.29 16.4957ZM198.288 6.35749C198.506 7.66283 198.943 9.06963 199.263 9.4842C199.582 9.89877 202.368 9.71492 205.456 9.0783L211.07 7.91819L211.01 5.50643C210.978 4.17903 210.781 2.87235 210.573 2.60205C210.364 2.33089 207.593 2.40331 204.413 2.76358C201.233 3.12233 198.466 3.54417 198.263 3.7007C198.06 3.85655 198.072 5.05147 198.288 6.35749ZM12.4875 163.347L12.6252 164.685L14.649 165.143C15.7628 165.394 17.2126 165.185 17.8705 164.678L19.0681 163.757L18.4541 162.959C18.1163 162.52 17.1265 161.725 16.2543 161.192L14.6685 160.223L13.5091 161.116C12.8712 161.606 12.4121 162.61 12.4875 163.347ZM9.53344 173.771L9.69874 175.385L12.0365 175.69L14.3752 175.993L15.1419 174.855L15.9094 173.718L12.638 172.938L9.36748 172.157L9.53344 173.771ZM231.417 4.5867L231.84 7.13566L237.364 7.44971L242.887 7.76441L243.519 6.72996C243.868 6.16143 244.043 4.58576 243.909 3.22872L243.668 0.761275L237.999 0.885779C234.881 0.953756 232.028 1.24086 231.661 1.52314C231.294 1.80543 231.184 3.18394 231.417 4.5867ZM5.99603 188.984L6.1228 190.215L8.59547 191.135C9.95589 191.642 11.3417 191.846 11.6772 191.588C12.0118 191.33 12.2287 190.565 12.1595 189.889L12.0327 188.658L9.56006 187.738C8.19964 187.231 6.81381 187.027 6.47833 187.285C6.14372 187.543 5.92685 188.308 5.99603 188.984ZM5.37532 193.397L5.4937 194.555L7.8219 195.233L10.1501 195.911L10.9438 194.735L11.7377 193.556L8.49721 192.899L5.25608 192.241L5.37532 193.397ZM254.336 5.55578L254.256 7.72649L255.207 7.85109L256.159 7.97415L256.637 5.8553C256.9 4.68987 256.851 3.39318 256.529 2.97427C256.206 2.55448 255.598 2.47539 255.178 2.79847C254.759 3.12088 254.38 4.36191 254.336 5.55578ZM3.72833 200.444L3.85803 201.701L6.14872 202.733C7.40966 203.302 8.73993 203.536 9.10496 203.255C9.47086 202.973 9.87374 201.945 10.0007 200.97L10.2315 199.196L8.13739 198.252L6.04325 197.308L4.82127 198.248C4.14945 198.765 3.65788 199.754 3.72833 200.444ZM274.232 8.89341L273.996 11.8424L274.761 11.2092C275.183 10.8613 275.812 9.53008 276.159 8.25127C276.506 6.97246 276.599 5.6762 276.364 5.37026C276.128 5.06434 275.605 5.06822 275.201 5.37926C274.797 5.6903 274.36 7.27184 274.232 8.89341ZM1.88419 222.215L1.72087 224.569L4.98861 224.651L8.25721 224.731L8.13139 221.937L8.00539 219.144L5.45731 219.164C4.05616 219.174 2.71505 219.335 2.47871 219.523C2.24171 219.709 1.97447 220.921 1.88419 222.215ZM2.08362 236.585C2.7048 237.003 4.16714 237.256 5.33409 237.147L7.45416 236.949L7.59318 235.887L7.73068 234.825L5.61183 234.347C4.44639 234.084 2.922 234.308 2.22323 234.846L0.953433 235.823L2.08362 236.585ZM2.09833 245.381L2.63949 247.195L5.15634 247.524L7.67406 247.851L7.98641 245.452L8.29875 243.053L4.92774 243.308L1.55738 243.565L2.09833 245.381ZM3.82349 262.628C4.17801 263.089 5.62085 263.275 7.02843 263.041L9.58704 262.617L9.71979 261.597L9.85253 260.577L7.21796 260.642C5.76974 260.678 4.26788 260.951 3.88112 261.248C3.49437 261.546 3.4683 262.167 3.82349 262.628ZM319.797 21.7947L319.048 23.0697L319.981 24.2821L320.914 25.4945L322.325 22.8324C323.101 21.3686 323.483 19.8417 323.174 19.4401C322.866 19.0395 322.149 19.1181 321.579 19.6157C321.011 20.1126 320.209 21.0937 319.797 21.7947ZM334.643 27.5984L333.782 29.6269L334.753 30.8879L335.723 32.1482L337.488 30.7896L339.254 29.4304L338.728 27.6665L338.203 25.9019L336.853 25.7356L335.504 25.5701L334.643 27.5984ZM343.245 33.7585L342.545 36.1629L343.687 36.0245L344.828 35.8868L346.214 33.643L347.601 31.3984L346.91 30.5015L346.22 29.6045L345.083 30.4801C344.457 30.9617 343.63 32.4369 343.245 33.7585ZM353.438 40.1405L352.757 41.3134L354.507 42.6681L356.256 44.0235L358.277 42.4683L360.296 40.9138L360.176 39.747L360.056 38.5802L358.462 37.6063L356.869 36.6324L355.493 37.8001C354.736 38.4421 353.812 39.4956 353.438 40.1405ZM15.5032 310.171L16.1406 310.999L18.6726 309.722L21.2044 308.446L20.136 307.719L19.0677 306.993L16.9668 308.167L14.8657 309.343L15.5032 310.171ZM371.386 52.9235L370.815 54.4907L372.546 55.5482L374.278 56.6066L375.168 55.1497C375.658 54.3493 376.417 53.4175 376.856 53.0797L377.654 52.4656L376.316 50.7274L374.978 48.9891L373.467 50.1727C372.637 50.824 371.7 52.0619 371.386 52.9235ZM22.575 328.35L23.1663 329.119L25.6588 327.862L28.1514 326.605L27.6463 325.949C27.3687 325.588 26.3406 325.532 25.361 325.824C24.3815 326.116 23.2211 326.631 22.7822 326.969C22.3433 327.307 22.2506 327.929 22.575 328.35ZM377.943 55.988L376.277 57.8694L377.141 58.9922L378.006 60.1151L379.859 58.0275L381.712 55.9398L380.786 54.7369C380.278 54.0764 379.804 53.6628 379.734 53.8203C379.665 53.9778 378.858 54.9529 377.943 55.988ZM380.732 61.8598L381.824 63.2791L383.812 61.3106L385.801 59.3429L385.132 58.4738L384.463 57.6047L382.052 59.023L379.64 60.4405L380.732 61.8598ZM28.4122 339.067L27.9946 340.256L30.9136 345.275L33.8326 350.294L36.4703 348.264L39.1072 346.235L37.5186 344.171C36.645 343.036 35.2652 340.761 34.4535 339.115L32.9762 336.123L30.9023 337L28.8291 337.877L28.4122 339.067ZM391.913 72.7913L392.994 74.1958L394.546 72.1667C395.4 71.0516 396.387 69.907 396.742 69.6247C397.095 69.3415 397.083 68.7197 396.715 68.2417L396.046 67.3726L393.439 69.3793L390.832 71.386L391.913 72.7913ZM399.354 80.6607C399.884 81.3499 400.795 81.8641 401.377 81.8047C401.961 81.7446 403.117 80.8189 403.946 79.7476L405.455 77.7997L404.53 76.5968L403.604 75.3949L400.997 77.4016L398.39 79.4083L399.354 80.6607ZM48.5423 372.879L52.2212 377.659L54.8286 375.653L57.4359 373.646L53.757 368.866L50.0781 364.086L47.4707 366.092L44.8634 368.099L48.5423 372.879ZM75.9865 401.925C76.0524 402.445 77.2775 403.992 78.7099 405.364L81.3131 407.859L82.725 406.751C83.502 406.141 84.3899 404.949 84.698 404.102L85.2582 402.562L82.5763 400.221L79.893 397.88L77.8801 399.429C76.7728 400.281 75.9205 401.404 75.9865 401.925ZM93.2631 413.454L92.0485 415.023L93.6713 417.131L95.2947 419.241L96.8056 418.057C97.6365 417.405 98.5589 416.207 98.8542 415.393L99.3927 413.911L97.4085 412.374C96.3166 411.529 95.2114 411.073 94.9509 411.362C94.6913 411.651 93.9322 412.592 93.2631 413.454ZM97.9213 419.825L98.0368 420.957L103.265 424.362C106.14 426.235 109.297 428.238 110.279 428.813C111.262 429.388 112.341 429.648 112.677 429.39C113.012 429.131 113.592 427.874 113.964 426.596L114.64 424.272L108.13 420.015L101.619 415.757L99.7112 417.226C98.6622 418.033 97.857 419.202 97.9213 419.825ZM454.014 187.416L454.873 192.262L457.214 191.874C458.501 191.66 459.899 191.22 460.32 190.896C460.74 190.572 460.661 188.327 460.143 185.906L459.2 181.506L456.793 181.565C455.469 181.597 454.109 181.837 453.771 182.097C453.432 182.358 453.543 184.751 454.014 187.416ZM137.754 440.945L137.081 443.257L141.093 445.295C143.301 446.415 145.451 447.067 145.871 446.744C146.292 446.42 147.082 445.167 147.627 443.959L148.616 441.764L144.207 439.671C141.782 438.521 139.49 437.816 139.113 438.106C138.736 438.396 138.124 439.673 137.754 440.945ZM456.953 206.598L457.652 210.87L459.772 211.349C460.938 211.612 462.33 211.484 462.864 211.064L463.836 210.298L463.45 205.529L463.063 200.76L460.599 200.82C459.244 200.854 457.712 201.206 457.195 201.604L456.256 202.327L456.953 206.598ZM156.304 447.264C155.759 448.534 155.261 449.8 155.197 450.077C155.134 450.354 157.009 451.309 159.365 452.2L163.65 453.819L164.777 452.952C165.397 452.475 165.938 451.142 165.981 449.989L166.057 447.893L161.802 446.285C159.462 445.401 157.491 444.74 157.42 444.816C157.352 444.893 156.849 445.994 156.304 447.264ZM458.007 247.475L457.487 255.588L460.53 255.984L463.573 256.38L464.287 247.957L465.001 239.535L462.272 239.04C460.772 238.768 459.316 238.73 459.036 238.955C458.757 239.18 458.294 243.014 458.007 247.475ZM456.772 260.18L456.615 263.194L459.115 263.176C460.491 263.165 462.128 262.784 462.751 262.328L463.887 261.498L463.356 259.717L462.825 257.933L459.877 257.55L456.928 257.166L456.772 260.18ZM453.884 278.928L453.148 282.212L454.676 283.146C455.517 283.66 456.997 283.844 457.962 283.556L459.718 283.034L460.235 280.177C460.52 278.605 460.478 276.962 460.141 276.524C459.804 276.086 458.538 275.598 457.33 275.442C456.122 275.284 455.017 275.265 454.876 275.399C454.735 275.533 454.288 277.121 453.884 278.928ZM440.653 320.646L438.868 325.731L441.26 327.004C442.576 327.704 443.935 328.059 444.28 327.794C444.625 327.528 445.948 324.883 447.222 321.915L449.536 316.519L446.941 315.634C445.513 315.147 443.916 314.931 443.391 315.154C442.867 315.378 441.635 317.848 440.653 320.646ZM279.779 455.691C279.996 456.996 280.494 458.481 280.886 458.99L281.599 459.917L283.279 458.624L284.958 457.332L284.176 455.178L283.393 453.025L282.177 452.565C281.508 452.312 280.605 452.378 280.172 452.711C279.74 453.045 279.563 454.385 279.779 455.691ZM291.815 453.347C292.032 454.653 292.379 455.942 292.587 456.212C292.795 456.483 293.553 456.253 294.27 455.701L295.573 454.698L294.959 453.9C294.622 453.461 294.106 452.301 293.815 451.321L293.284 449.54L292.352 450.257C291.84 450.651 291.598 452.041 291.815 453.347ZM425.263 350.375L423.02 354.242L424.991 355.64C426.074 356.409 427.229 357.088 427.556 357.148C427.883 357.208 429.272 355.674 430.643 353.739C432.012 351.804 433.399 349.469 433.725 348.55L434.317 346.879L432.309 345.483L430.301 344.088L428.904 345.297C428.136 345.963 426.497 348.247 425.263 350.375ZM305.748 448.138C306.086 448.576 306.601 449.737 306.892 450.716L307.423 452.497L309.254 451.088L311.086 449.679L309.413 447.506L307.741 445.333L306.437 446.336L305.134 447.34L305.748 448.138ZM311.33 447.48L312.477 450.12L313.515 450.256L314.552 450.39L314.376 448.49C314.28 447.444 313.68 445.9 313.044 445.058L311.886 443.527L311.034 444.183L310.181 444.839L311.33 447.48ZM418.309 366.465L420.397 368.318L421.165 367.726C421.586 367.402 421.656 366.777 421.318 366.338C420.98 365.899 419.991 365.104 419.118 364.571C418.246 364.038 417.238 363.829 416.877 364.107L416.221 364.612L418.309 366.465ZM315.988 444.061C315.914 444.624 316.406 445.803 317.081 446.679L318.307 448.273L320.045 446.935L321.783 445.597L321.169 444.799C320.832 444.36 320.316 443.2 320.025 442.22L319.494 440.439L317.808 441.737C316.88 442.451 316.061 443.497 315.988 444.061ZM404.778 380.684C405.272 381.256 406.553 382.252 407.627 382.898L409.578 384.071L409.445 382.776L409.313 381.48L407.365 379.972C406.293 379.141 405.071 378.729 404.648 379.054C404.227 379.378 404.285 380.112 404.778 380.684ZM335.752 436.774L337.353 438.854L339.143 438.321L340.932 437.787L341.347 436.69L341.762 435.593L340.13 433.471L338.497 431.35L336.324 433.022L334.151 434.694L335.752 436.774ZM348.82 429.182C349.347 430.43 350.237 431.623 350.795 431.835L351.812 432.219L352.236 431.096L352.661 429.973L351.028 427.852L349.395 425.73L348.628 426.321C348.205 426.646 348.291 427.933 348.82 429.182ZM356.442 424.7C356.969 425.948 357.826 427.129 358.345 427.326L359.289 427.682L360.188 426.21L361.087 424.739L359.487 422.659L357.886 420.579L356.684 421.504L355.481 422.43L356.442 424.7ZM369.335 412.728C369.265 413.269 369.909 414.624 370.768 415.74L372.329 417.767L373.632 416.764L374.936 415.761L373.303 413.639L371.671 411.518L370.566 411.631L369.463 411.744L369.335 412.728Z" fill="#E2E2E2"/>
</svg>
