<svg width="501" height="510" viewBox="0 0 501 510" fill="none" xmlns="http://www.w3.org/2000/svg">
<path fill-rule="evenodd" clip-rule="evenodd" d="M79.0129 68.1611C75.4925 71.4988 69.5735 77.5641 65.86 81.64C62.1458 85.715 56.7234 92.1467 53.8087 95.9317L48.5099 102.814L51.4111 104.954C53.0058 106.131 54.6567 107.542 55.0794 108.091L55.8473 109.089L53.8907 111.492C52.8147 112.812 49.4402 117.937 46.3923 122.877C43.3436 127.817 40.4375 132.365 39.9341 132.982L39.0184 134.105L31.5094 129.85L24.0004 125.596L22.755 126.555C22.071 127.081 20.0167 130.606 18.1917 134.389C16.3676 138.17 13.9672 143.483 12.859 146.193L10.8441 151.122L14.9561 152.876C17.2174 153.839 19.0371 154.832 19.0009 155.08C18.9641 155.327 16.8231 161.638 14.2442 169.103C11.6651 176.57 8.4328 187.744 7.06209 193.937C5.6905 200.129 3.81929 211.001 2.9027 218.096C1.9861 225.191 1.10197 238.26 0.938481 247.139C0.77413 256.019 1.03253 267.653 1.51204 272.992C1.99068 278.333 3.82089 289.691 5.57898 298.233C7.33619 306.775 9.83722 317.306 11.1357 321.634C12.4351 325.962 14.9411 333.331 16.705 338.007C18.4697 342.684 22.4463 351.768 25.5429 358.192C28.6393 364.617 33.847 374.319 37.1155 379.752L43.0588 389.63L57.5957 407.584L72.1326 425.537L83.4059 435.544C89.6066 441.047 98.4121 448.282 102.973 451.622C107.535 454.962 116.514 460.818 122.927 464.635C129.34 468.453 139.387 473.799 145.254 476.514C151.12 479.231 161.42 483.378 168.144 485.732C174.867 488.085 184.709 491.098 190.015 492.426C195.32 493.754 202.926 495.398 206.914 496.077C210.903 496.756 216.534 497.555 219.426 497.852L224.685 498.392L225.115 493.972L225.542 489.552L240.15 490.132C248.183 490.452 255.099 490.928 255.516 491.192C255.933 491.455 256.356 495.468 256.455 500.11L256.636 508.55L257.807 508.992C258.451 509.236 263.242 509.166 268.454 508.835C273.667 508.505 279.669 507.918 281.795 507.53L285.66 506.824L285.009 504.914C284.651 503.864 284.352 501.897 284.345 500.543L284.332 498.081L301.464 494.511L318.594 490.943L330.167 486.924C336.531 484.714 346.35 480.884 351.987 478.413C357.623 475.943 367.283 471.175 373.453 467.819L384.672 461.716L403.732 446.922L422.792 432.128L432.51 421.575C437.854 415.772 445.987 406.049 450.583 399.97C455.179 393.89 461.776 384.165 465.241 378.358C468.706 372.55 474.36 361.666 477.806 354.172C481.25 346.677 485.55 336.073 487.36 330.606C489.169 325.14 491.272 318.329 492.032 315.473C492.792 312.616 494.416 305.363 495.64 299.356C496.864 293.349 498.476 283.078 499.222 276.532C499.968 269.987 500.652 260.527 500.741 255.511C500.831 250.494 500.443 239.894 499.878 231.956C499.314 224.018 498.062 212.803 497.096 207.035C496.131 201.265 494.03 191.672 492.429 185.716C490.826 179.76 487.834 170.239 485.779 164.557C483.724 158.877 481.294 152.998 480.382 151.494L478.721 148.76L474.767 150.519L470.812 152.277L469.88 150.045C469.369 148.818 466.423 143.219 463.334 137.605C460.245 131.99 457.476 126.765 457.18 125.995L456.641 124.595L463.405 120.333C467.125 117.988 470.588 115.829 471.099 115.533L472.03 114.997L469.287 110.188C467.778 107.544 464.261 102.345 461.473 98.636L456.404 91.8919L452.505 94.467L448.605 97.043L439.343 86.1806L430.082 75.3175L421.947 67.7387C417.473 63.5706 408.58 56.0917 402.184 51.1189L390.555 42.0779L378.836 35.1821C372.39 31.3899 361.805 25.8358 355.314 22.8394C348.822 19.8437 337.719 15.4672 330.641 13.1131C323.562 10.7588 313 7.69705 307.168 6.31066C301.337 4.92273 290.363 3.01089 282.782 2.06152C275.202 1.11301 262.932 0.261048 255.517 0.168415C248.101 0.0773203 239.443 0.12647 236.278 0.279065C233.113 0.431642 227.34 0.902504 223.45 1.32515C219.561 1.74712 210.142 3.29566 202.52 4.76612C194.898 6.23571 183.832 8.9384 177.929 10.7718C172.027 12.6045 163.053 15.7304 157.988 17.7175C152.924 19.7054 143.98 23.7753 138.113 26.7629C132.246 29.7499 123.09 34.912 117.765 38.2353L108.083 44.2768L96.7481 53.1844C90.514 58.0833 82.5334 64.8233 79.0129 68.1611ZM119.976 42.13C125.589 38.6197 135.81 32.9447 142.688 29.5202L155.195 23.2935L168.261 18.6919C175.447 16.1614 185.807 13.0345 191.284 11.7439C196.76 10.4532 205.209 8.66272 210.061 7.76547C214.913 6.86737 226.31 5.66713 235.39 5.09656L251.897 4.05865L267.306 5.03387L282.715 6.00756L294.904 8.41471C301.608 9.73868 311.329 11.9919 316.505 13.4211C321.681 14.8512 327.833 16.7907 330.176 17.7307L334.436 19.4412L334.572 20.7664C334.646 21.4948 334.242 22.4486 333.672 22.8858L332.635 23.6808L326.861 21.5542C323.685 20.3846 315.236 18.0138 308.084 16.2867C300.934 14.559 289.977 12.4686 283.736 11.6406C277.495 10.8125 267.243 9.922 260.953 9.66158C254.663 9.40116 245.268 9.33077 240.074 9.50551C234.88 9.67939 224.987 10.5813 218.09 11.5094C211.193 12.4376 200.828 14.3447 195.057 15.7472C189.286 17.1496 180.361 19.7143 175.225 21.4473C170.089 23.1803 162.343 26.0626 158.013 27.8536C153.682 29.6437 145.431 33.4887 139.679 36.3991L129.22 41.6895L110.537 55.2782L91.8543 68.8678L83.5761 76.8899C79.0233 81.3031 74.5822 85.8019 73.7063 86.8899L72.1139 88.8668L70.4444 86.6975L68.7748 84.5282L76.5049 77.04C80.7566 72.9208 85.5015 68.3653 87.0488 66.9143C88.5968 65.4641 94.3424 60.7308 99.8172 56.3954L109.772 48.5125L119.976 42.13ZM124.708 50.2129L132.922 44.7022L145.196 38.5617C151.948 35.1855 161.669 30.8243 166.8 28.8709C171.931 26.9175 182.358 23.7022 189.97 21.7244C197.582 19.7476 206.309 17.736 209.364 17.2538C212.418 16.7725 219.282 15.8353 224.617 15.1714C229.952 14.5074 240.737 13.8836 248.582 13.7851L262.848 13.6058L277.298 15.3515C285.245 16.3111 294.577 17.6949 298.035 18.4258C301.493 19.1566 308.833 20.9803 314.346 22.4792C319.86 23.9775 329.736 27.3019 336.293 29.8666C342.85 32.4314 350.706 35.7267 353.75 37.1904C356.793 38.654 363.203 42.1279 367.994 44.9101C372.785 47.6929 380.116 52.326 384.285 55.207C388.455 58.0873 394.115 62.1385 396.865 64.2084C399.614 66.2789 406.288 72.0403 411.697 77.0119L421.529 86.0514L432.096 98.6781L442.662 111.305L449.683 122.508C453.545 128.67 458.673 137.521 461.078 142.176C463.484 146.833 465.53 151.391 465.624 152.307L465.794 153.972L458.816 157.369L451.837 160.765L455.763 171.392L459.689 182.017L461.658 181.656C462.741 181.458 466.236 180.372 469.425 179.242L475.223 177.189L476.359 179.802C476.984 181.239 478.855 188.097 480.518 195.041C482.181 201.985 484.149 213.198 484.889 219.959C485.63 226.719 486.378 233.265 486.552 234.505C486.725 235.745 486.88 240.398 486.898 244.845C486.915 249.292 486.884 254.49 486.828 256.395C486.772 258.301 486.487 263.206 486.194 267.295C485.9 271.383 484.975 279.487 484.137 285.302C483.3 291.117 481.042 301.923 479.12 309.316C477.199 316.709 473.931 327.398 471.859 333.067C469.788 338.737 465.236 348.983 461.746 355.837C458.254 362.69 452.255 373.137 448.413 379.054C444.572 384.97 438.877 392.968 435.758 396.828C432.64 400.688 426.904 407.396 423.014 411.737L415.941 419.629L394.213 436.351L372.485 453.074L363.041 457.886C357.846 460.531 348.966 464.705 343.305 467.159C337.644 469.613 327.456 473.367 320.664 475.502L308.315 479.385L293.563 482.078C285.448 483.56 273.269 485.132 266.498 485.573C259.727 486.014 250.324 486.211 245.602 486.01C240.88 485.809 234.486 485.397 231.393 485.095L225.769 484.545L226.767 476.494L227.763 468.443L216.865 466.761C210.87 465.835 205.575 465.173 205.097 465.288C204.618 465.405 203.507 468.911 202.628 473.082L201.029 480.666L194.974 479.432C191.644 478.753 183.336 476.268 176.511 473.909C169.686 471.55 162.654 469.149 160.884 468.572C159.115 467.995 152.562 464.942 146.323 461.788C140.084 458.633 131.909 454.206 128.157 451.95C124.405 449.694 118.712 445.979 115.506 443.696C112.299 441.413 106.441 436.993 102.487 433.877C98.534 430.759 91.3418 424.462 86.5043 419.883L77.7094 411.557L64.3062 394.194L50.9031 376.831L45.7236 367.67C42.8743 362.632 38.1846 353.164 35.301 346.63C32.4173 340.096 28.3304 329.54 26.2188 323.173C24.1072 316.806 21.1565 306.012 19.6632 299.184C18.1684 292.356 16.4514 281.222 15.8482 274.442C15.2435 267.661 14.6575 260.004 14.5449 257.426C14.4323 254.849 14.5473 246.66 14.7999 239.229L15.2598 225.718L17.3713 213.458C18.5322 206.715 20.4393 197.28 21.6101 192.491C22.7793 187.702 24.789 180.603 26.0749 176.714C27.36 172.826 30.5877 164.379 33.2454 157.942C35.9031 151.505 40.4077 141.984 43.2556 136.783C46.1029 131.582 50.8964 123.65 53.908 119.156L59.3831 110.986L65.121 115.136C68.2782 117.419 71.4302 119.374 72.1271 119.482L73.3952 119.676L80.2579 111.324L87.12 102.97L85.3426 100.704C84.3639 99.4573 81.8365 97.0168 79.7258 95.2812L75.8886 92.1243L76.4279 90.6977C76.7248 89.9128 80.9686 85.4814 85.8609 80.8512C90.7525 76.2202 96.6173 70.8055 98.8936 68.8183C101.171 66.832 106.062 63.0729 109.764 60.4649C113.466 57.8578 120.191 53.2441 124.708 50.2129ZM11.6605 291.249L13.3019 291.1L15.5583 301.029C16.8009 306.489 18.7724 314.269 19.9417 318.317C21.111 322.364 23.6393 329.76 25.5601 334.752C27.4817 339.743 30.5194 347.004 32.3123 350.887C34.1043 354.771 37.9693 362.267 40.9012 367.547C43.8324 372.827 49.9531 382.495 54.5035 389.033L62.7763 400.919L72.871 411.827L82.9666 422.734L93.498 431.928L104.03 441.121L116.959 449.841L129.889 458.56L144.783 465.794C152.975 469.774 163.84 474.496 168.927 476.287C174.016 478.08 183.09 480.84 189.093 482.421L200.008 485.298L199.504 487.527L199.002 489.754L194.105 488.708C191.413 488.132 184.584 486.24 178.928 484.504C173.273 482.767 165.413 480.097 161.462 478.572C157.51 477.046 148.224 472.856 140.826 469.259L127.376 462.721L114.63 454.13L101.886 445.539L91.6781 436.789C86.0632 431.976 78.1279 424.562 74.0443 420.314L66.6193 412.59L55.9517 398.73L45.2842 384.869L38.4147 373.077L31.5445 361.284L25.6995 347.792C22.4857 340.37 18.3151 329.256 16.4326 323.093C14.5501 316.931 12.0801 307.466 10.9444 302.061C9.80772 296.657 9.13481 292.046 9.4487 291.815C9.76325 291.586 10.7584 291.331 11.6605 291.249ZM482.884 175.031L484.692 174.865L486.114 179.79C486.896 182.498 488.186 187.328 488.98 190.523C489.774 193.717 491.289 200.958 492.348 206.614C493.406 212.269 494.769 224.298 495.376 233.345L496.479 249.795L495.679 263.558C495.239 271.128 494.255 281.439 493.492 286.47C492.729 291.503 490.923 300.556 489.477 306.589C488.03 312.622 484.918 323.275 482.559 330.262L478.271 342.968L471.564 356.645C467.876 364.168 461.817 375.177 458.1 381.112C454.384 387.047 448.983 394.906 446.1 398.577C443.216 402.247 438.376 408.097 435.345 411.576C432.313 415.053 427.008 420.702 423.555 424.128C420.102 427.554 415.201 432.109 412.662 434.249L408.046 438.142L406.44 436.585L404.835 435.029L414.727 425.775L424.62 416.521L433.595 406.131L442.572 395.742L450.466 383.997L458.361 372.251L465.97 356.963L473.578 341.675L478.003 328.543C480.437 321.321 483.485 311.121 484.777 305.877C486.07 300.634 487.878 290.959 488.796 284.379C489.714 277.799 490.727 266.297 491.049 258.818C491.371 251.34 491.255 239.587 490.791 232.7L489.948 220.181L487.126 205.766C485.574 197.839 483.55 188.82 482.627 185.724C481.705 182.629 480.668 179.222 480.323 178.156C479.979 177.089 480.008 175.986 480.387 175.706C480.766 175.427 481.89 175.122 482.884 175.031Z" fill="#E2E2E2"/>
</svg>
