<svg width="75" height="80" viewBox="0 0 75 80" fill="none" xmlns="http://www.w3.org/2000/svg">
<path fill-rule="evenodd" clip-rule="evenodd" d="M37.1801 9.88477C29.6065 9.88477 28.6584 9.91838 25.684 10.0627C22.7152 10.207 20.687 10.7092 18.9135 11.4428C17.0545 12.1862 15.3684 13.3527 13.9741 14.8633C12.5561 16.3445 11.4587 18.1365 10.7581 20.1147C10.0721 22.0009 9.59806 24.16 9.46235 27.3175C9.32851 30.479 9.29504 31.4854 9.29504 39.5424C9.29504 47.5994 9.32665 48.6057 9.46235 51.7692C9.59806 54.9268 10.0702 57.0839 10.7599 58.9701C11.4589 60.9473 12.5557 62.7406 13.976 64.2234C15.3687 65.7315 17.0536 66.8988 18.9135 67.6439C20.687 68.3755 22.7152 68.8777 25.684 69.022C28.6584 69.1664 29.6065 69.2 37.1801 69.2C44.7536 69.2 45.7017 69.1664 48.6761 69.022C51.6449 68.8777 53.6731 68.3755 55.4466 67.642C57.3056 66.8985 58.9917 65.732 60.386 64.2215C61.804 62.7403 62.9015 60.9483 63.602 58.9701C64.2899 57.0839 64.7621 54.9268 64.8978 51.7692C65.0335 48.6057 65.0651 47.5974 65.0651 39.5424C65.0651 31.4874 65.0335 30.479 64.8978 27.3155C64.7621 24.158 64.2899 22.0009 63.6002 20.1147C62.9001 18.1356 61.8026 16.3428 60.3841 14.8613C58.9915 13.3532 57.3065 12.1859 55.4466 11.4408C53.6731 10.7112 51.6431 10.207 48.6743 10.0627C45.7017 9.92035 44.7555 9.88477 37.1801 9.88477ZM37.1801 15.2291C44.6254 15.2291 45.5084 15.2587 48.4493 15.4011C51.1672 15.5336 52.6432 16.014 53.6266 16.4233C54.9279 16.9591 55.8574 17.6037 56.8334 18.6397C57.8094 19.6777 58.4136 20.6663 58.9174 22.0503C59.3003 23.0962 59.7539 24.6661 59.8785 27.5567C60.0123 30.6846 60.0402 31.6238 60.0402 39.5424C60.0402 47.461 60.0123 48.4001 59.8785 51.528C59.7539 54.4186 59.3022 55.9885 58.9174 57.0344C58.4711 58.3226 57.759 59.4881 56.8334 60.4451C55.9338 61.4296 54.838 62.187 53.6266 62.6615C52.6432 63.0688 51.1672 63.5512 48.4493 63.6837C45.5084 63.826 44.6272 63.8557 37.1801 63.8557C29.7329 63.8557 28.8517 63.826 25.9108 63.6837C23.1929 63.5512 21.7169 63.0707 20.7335 62.6615C19.5223 62.1868 18.4265 61.4294 17.5267 60.4451C16.6012 59.488 15.8892 58.3226 15.4428 57.0344C15.0598 55.9885 14.6062 54.4186 14.4817 51.528C14.3478 48.4001 14.3199 47.461 14.3199 39.5424C14.3199 31.6238 14.3478 30.6846 14.4817 27.5567C14.6062 24.6661 15.0579 23.0962 15.4428 22.0503C15.9465 20.6663 16.5526 19.6777 17.5267 18.6397C18.4263 17.6551 19.5222 16.8978 20.7335 16.4233C21.7169 16.016 23.1929 15.5336 25.9108 15.4011C28.8517 15.2587 29.7348 15.2291 37.1801 15.2291Z" fill="white"/>
<path fill-rule="evenodd" clip-rule="evenodd" d="M37.18 49.4409C35.9581 49.4409 34.7482 49.1849 33.6194 48.6876C32.4906 48.1903 31.4649 47.4614 30.6009 46.5425C29.7369 45.6236 29.0515 44.5327 28.584 43.3321C28.1164 42.1314 27.8757 40.8446 27.8757 39.5451C27.8757 38.2456 28.1164 36.9588 28.584 35.7582C29.0515 34.5576 29.7369 33.4667 30.6009 32.5478C31.4649 31.6289 32.4906 30.8999 33.6194 30.4026C34.7482 29.9053 35.9581 29.6494 37.18 29.6494C39.6477 29.6494 42.0142 30.6919 43.7591 32.5478C45.504 34.4036 46.4843 36.9206 46.4843 39.5451C46.4843 42.1696 45.504 44.6867 43.7591 46.5425C42.0142 48.3983 39.6477 49.4409 37.18 49.4409ZM37.18 24.3011C33.3787 24.3011 29.7331 25.9072 27.0451 28.766C24.3572 31.6248 22.8471 35.5021 22.8471 39.5451C22.8471 43.5881 24.3572 47.4654 27.0451 50.3243C29.7331 53.1831 33.3787 54.7891 37.18 54.7891C40.9813 54.7891 44.6269 53.1831 47.3149 50.3243C50.0028 47.4654 51.5129 43.5881 51.5129 39.5451C51.5129 35.5021 50.0028 31.6248 47.3149 28.766C44.6269 25.9072 40.9813 24.3011 37.18 24.3011ZM55.6826 24.0243C55.6826 24.98 55.3257 25.8965 54.6903 26.5723C54.0549 27.2481 53.1932 27.6277 52.2946 27.6277C51.396 27.6277 50.5343 27.2481 49.8989 26.5723C49.2635 25.8965 48.9066 24.98 48.9066 24.0243C48.9066 23.0686 49.2635 22.1521 49.8989 21.4763C50.5343 20.8005 51.396 20.4209 52.2946 20.4209C53.1932 20.4209 54.0549 20.8005 54.6903 21.4763C55.3257 22.1521 55.6826 23.0686 55.6826 24.0243Z" fill="white"/>
</svg>
