<svg width="66" height="60" viewBox="0 0 66 60" fill="none" xmlns="http://www.w3.org/2000/svg">
<path d="M59.0457 14.8764C59.0858 15.5247 59.0858 16.173 59.0858 16.8273C59.0858 36.764 45.5102 59.7571 20.6867 59.7571V59.7452C13.3538 59.7571 6.17314 57.4088 0 52.9811C1.06627 53.1245 2.13788 53.1962 3.21217 53.1992C9.28911 53.2052 15.1923 50.9256 19.9732 46.7279C14.1982 46.6054 9.13411 42.3958 7.36501 36.2501C9.38799 36.6863 11.4724 36.5967 13.458 35.9902C7.16191 34.5681 2.63227 28.3836 2.63227 21.2013C2.63227 21.1355 2.63227 21.0728 2.63227 21.0101C4.50826 22.1782 6.60874 22.8266 8.75731 22.8983C2.82735 18.4676 0.999461 9.64796 4.58042 2.75243C11.4323 12.1785 21.5419 17.9089 32.3943 18.5154C31.3067 13.275 32.7925 7.78366 36.2986 4.09986C41.7342 -1.61256 50.283 -1.31976 55.3926 4.75416C58.415 4.08791 61.3119 2.84803 63.9628 1.09128C62.9554 4.58386 60.8469 7.55062 58.0302 9.43584C60.7052 9.08329 63.3188 8.2826 65.78 7.06064C63.9682 10.0961 61.686 12.7402 59.0457 14.8764Z" fill="white"/>
</svg>
