<?xml version="1.0" encoding="utf-8"?>
<!-- Generator: Adobe Illustrator 26.0.3, SVG Export Plug-In . SVG Version: 6.00 Build 0)  -->
<svg version="1.0" id="katman_1" xmlns="http://www.w3.org/2000/svg" xmlns:xlink="http://www.w3.org/1999/xlink" x="0px" y="0px"
	 viewBox="0 0 600 450" style="enable-background:new 0 0 600 450;" xml:space="preserve">
<style type="text/css">
	.st0{fill:#010202;}
</style>
<path class="st0" d="M309.2,218.8h-15.6c-0.3-2-0.9-3.8-1.7-5.4c-0.9-1.6-2-2.9-3.4-4.1c-1.4-1.1-3-2-4.8-2.6
	c-1.8-0.6-3.7-0.9-5.8-0.9c-3.8,0-7,0.9-9.8,2.8c-2.8,1.8-5,4.5-6.5,8.1c-1.5,3.5-2.3,7.8-2.3,12.9c0,5.2,0.8,9.5,2.3,13.1
	c1.6,3.5,3.7,6.2,6.5,8c2.8,1.8,6,2.7,9.7,2.7c2.1,0,4-0.3,5.7-0.8c1.8-0.5,3.4-1.3,4.7-2.4c1.4-1.1,2.5-2.4,3.4-3.9
	c0.9-1.5,1.6-3.2,1.9-5.2l15.6,0.1c-0.4,3.3-1.4,6.6-3,9.7c-1.6,3.1-3.7,5.8-6.4,8.3c-2.7,2.4-5.9,4.3-9.6,5.8
	c-3.7,1.4-7.9,2.1-12.5,2.1c-6.5,0-12.3-1.5-17.4-4.4c-5.1-2.9-9.1-7.2-12.1-12.8c-2.9-5.6-4.4-12.3-4.4-20.2
	c0-7.9,1.5-14.7,4.5-20.3c3-5.6,7-9.8,12.2-12.7c5.1-2.9,10.9-4.4,17.3-4.4c4.2,0,8.1,0.6,11.7,1.8c3.6,1.2,6.8,2.9,9.6,5.2
	c2.8,2.3,5.1,5,6.8,8.3C307.5,210.9,308.7,214.6,309.2,218.8z"/>
<path class="st0" d="M344.3,267.2c-5.5,0-10.3-1.2-14.3-3.5c-4-2.4-7.1-5.7-9.3-9.9c-2.2-4.2-3.3-9.2-3.3-14.7
	c0-5.6,1.1-10.6,3.3-14.8c2.2-4.2,5.3-7.5,9.3-9.9c4-2.4,8.8-3.6,14.3-3.6c5.5,0,10.3,1.2,14.3,3.6c4,2.3,7.1,5.6,9.3,9.9
	c2.2,4.2,3.3,9.1,3.3,14.8c0,5.6-1.1,10.5-3.3,14.7c-2.2,4.2-5.3,7.5-9.3,9.9C354.6,266,349.8,267.2,344.3,267.2z M344.4,255.5
	c2.5,0,4.6-0.7,6.3-2.1c1.7-1.4,3-3.4,3.8-5.9c0.9-2.5,1.3-5.3,1.3-8.5s-0.4-6-1.3-8.5c-0.9-2.5-2.1-4.5-3.8-5.9
	c-1.7-1.4-3.8-2.2-6.3-2.2c-2.5,0-4.7,0.7-6.4,2.2c-1.7,1.4-3,3.4-3.9,5.9c-0.9,2.5-1.3,5.3-1.3,8.5s0.4,6,1.3,8.5
	c0.9,2.5,2.2,4.5,3.9,5.9C339.7,254.8,341.8,255.5,344.4,255.5z"/>
<path class="st0" d="M400.9,267c-4.1,0-7.9-1.1-11.3-3.2c-3.3-2.2-6-5.3-8-9.5c-1.9-4.2-2.9-9.3-2.9-15.4c0-6.3,1-11.5,3-15.6
	c2-4.2,4.7-7.3,8-9.3c3.4-2.1,7-3.1,11.1-3.1c3.1,0,5.6,0.5,7.6,1.6c2.1,1,3.7,2.3,5,3.8c1.3,1.5,2.3,3,2.9,4.5h0.5v-27.4h15.1v72.8
	H417v-8.7h-0.6c-0.7,1.5-1.7,3-3,4.5c-1.3,1.5-2.9,2.7-5,3.7C406.3,266.5,403.8,267,400.9,267z M405.6,255c2.4,0,4.5-0.7,6.2-2
	c1.7-1.4,3-3.2,3.9-5.6c0.9-2.4,1.4-5.2,1.4-8.5c0-3.2-0.4-6.1-1.3-8.5c-0.9-2.4-2.2-4.2-3.9-5.5c-1.7-1.3-3.8-2-6.2-2
	c-2.5,0-4.6,0.7-6.3,2c-1.7,1.4-3,3.2-3.9,5.6c-0.9,2.4-1.3,5.2-1.3,8.3c0,3.2,0.4,6,1.3,8.4c0.9,2.4,2.2,4.3,3.9,5.7
	C401.1,254.3,403.2,255,405.6,255z"/>
<path class="st0" d="M469,267.2c-5.6,0-10.4-1.1-14.5-3.4c-4-2.3-7.1-5.5-9.3-9.7c-2.2-4.2-3.3-9.2-3.3-15c0-5.6,1.1-10.5,3.3-14.8
	c2.2-4.2,5.2-7.5,9.2-9.9c4-2.4,8.6-3.6,14-3.6c3.6,0,7,0.6,10.1,1.7c3.1,1.1,5.9,2.9,8.2,5.2c2.3,2.3,4.2,5.2,5.5,8.7
	c1.3,3.5,2,7.5,2,12.2v4.2h-46.1v-9.4h31.8c0-2.2-0.5-4.1-1.4-5.8s-2.3-3-3.9-3.9c-1.7-1-3.6-1.5-5.8-1.5c-2.3,0-4.3,0.5-6.1,1.6
	c-1.8,1-3.1,2.5-4.1,4.2c-1,1.8-1.5,3.7-1.5,5.9v8.9c0,2.7,0.5,5,1.5,7c1,2,2.5,3.5,4.3,4.5c1.8,1.1,4,1.6,6.6,1.6
	c1.7,0,3.2-0.2,4.6-0.7c1.4-0.5,2.6-1.2,3.6-2.1c1-0.9,1.8-2.1,2.3-3.5l14,0.9c-0.7,3.4-2.2,6.3-4.4,8.8c-2.2,2.5-5,4.4-8.5,5.8
	C477.4,266.5,473.5,267.2,469,267.2z"/>
<path class="st0" d="M503.6,266.1v-54.6h14.7v9.5h0.6c1-3.4,2.7-5.9,5-7.7c2.3-1.8,5-2.6,8.1-2.6c0.8,0,1.6,0,2.5,0.1
	c0.9,0.1,1.6,0.2,2.3,0.4v13.4c-0.7-0.2-1.7-0.4-2.9-0.6c-1.3-0.2-2.4-0.2-3.4-0.2c-2.2,0-4.2,0.5-6,1.5c-1.7,0.9-3.1,2.3-4.1,4
	c-1,1.7-1.5,3.7-1.5,5.9v30.9H503.6z"/>
<path class="st0" d="M205.9,218.6c-2.9,0-4.8-1.7-4.8-5.2v-20.1c0-12.8-5.3-19.9-18.9-19.9h-6.3v13.6h1.9c5.4,0,7.9,3,7.9,8.3v17.8
	c0,7.7,2.3,10.9,7.3,12.5c-5,1.5-7.3,4.8-7.3,12.5c0,4.4,0,8.8,0,13.2c0,3.7,0,7.3-1,10.9c-1,3.4-2.6,6.6-4.8,9.4
	c-1.2,1.6-2.6,3-4.2,4.2v1.8h6.3c13.7,0,18.9-7.1,18.9-19.9v-20.1c0-3.6,1.9-5.2,4.8-5.2h3.6v-13.6L205.9,218.6L205.9,218.6z"/>
<path class="st0" d="M162.8,193.8h-19.6c-0.4,0-0.8-0.4-0.8-0.8v-1.5c0-0.4,0.4-0.8,0.8-0.8h19.7c0.4,0,0.8,0.4,0.8,0.8v1.5
	C163.6,193.4,163.2,193.8,162.8,193.8z"/>
<path class="st0" d="M166.1,213.2h-14.3c-0.4,0-0.8-0.4-0.8-0.8v-1.5c0-0.4,0.4-0.8,0.8-0.8h14.3c0.4,0,0.8,0.4,0.8,0.8v1.5
	C166.9,212.7,166.5,213.2,166.1,213.2z"/>
<path class="st0" d="M171.7,203.5h-28.6c-0.4,0-0.8-0.4-0.8-0.8v-1.5c0-0.4,0.4-0.8,0.8-0.8h28.5c0.4,0,0.8,0.4,0.8,0.8v1.5
	C172.4,203,172.2,203.5,171.7,203.5z"/>
<path class="st0" d="M120.5,198.2c1.9,0,3.9,0.2,5.7,0.6v-3.7c0-5.2,2.6-8.3,7.9-8.3h1.9v-13.6h-6.3c-13.7,0-18.9,7.1-18.9,19.9v6.6
	C113.9,198.8,117.2,198.2,120.5,198.2z"/>
<path class="st0" d="M177.7,247c-1.4-11.4-10-20.9-21.1-23.1c-3.1-0.6-6.2-0.7-9.2-0.2c-0.1,0-0.1-0.1-0.2-0.1
	c-4.8-10.3-15.2-17.1-26.5-17.1s-21.6,6.6-26.5,17c-0.1,0-0.1,0.1-0.2,0.1c-3.2-0.4-6.3-0.2-9.5,0.6c-10.9,2.7-19.2,12-20.7,23.3
	c-0.2,1.2-0.3,2.3-0.3,3.4c0,3.4,2.3,6.6,5.6,7c4.1,0.6,7.8-2.6,7.7-6.7c0-0.6,0-1.3,0.1-2c0.7-5.7,5-10.6,10.7-11.9
	c1.8-0.4,3.5-0.5,5.2-0.3c5.4,0.7,10.7-2.1,13-6.9c1.7-3.6,4.3-6.7,7.8-8.4c3.9-1.9,8.3-2.2,12.3-0.7c4.2,1.5,7.4,4.8,9.3,8.8
	c2,3.9,3,6.7,7.3,7.3c1.8,0.3,6.7,0.2,8.5,0.1c3.6,0,7.2,1.3,9.8,3.9c1.7,1.8,2.9,4,3.4,6.6c0.8,4-0.2,8.1-2.6,11.1
	c-1.7,2.2-4,3.8-6.5,4.5c-1.2,0.4-2.5,0.4-3.7,0.4c-0.7,0-1.7,0-2.8,0c-3.5,0-11,0-16.7,0c-3.9,0-7-3.1-7-7.1v-13.3v-13
	c0-1.1-0.9-2-1.9-2h-2.7c-5.4,0.1-9.7,6.2-9.7,12.7c0,6.5,0,23.6,0,23.6c0,7,5.6,12.7,12.4,12.7c0,0,30.6-0.1,31-0.1
	c7-0.7,13.6-4.4,18-10.1C176.6,261.5,178.6,254.4,177.7,247z"/>
</svg>
