<svg width="207" height="52" viewBox="0 0 207 52" fill="none" xmlns="http://www.w3.org/2000/svg">
<rect x="1.44444" y="1.44444" width="203.324" height="48.8889" rx="24.4444" stroke="white" stroke-width="2.88889"/>
<path d="M47.8843 37.2734C48.0563 37.2734 48.2284 37.2289 48.3824 37.1398C48.6903 36.9619 48.8799 36.6334 48.8799 36.2778V15.5C48.8799 15.1445 48.6903 14.8159 48.3824 14.6381C48.0746 14.4602 47.6953 14.46 47.3871 14.6375L38.3802 19.8285L29.3857 25.0343C29.078 25.2124 28.8886 25.541 28.8888 25.8965C28.889 26.252 29.0788 26.5805 29.3867 26.7582L47.3871 37.1405C47.5411 37.229 47.7128 37.2734 47.8843 37.2734ZM46.8888 17.2228V34.5549L31.874 25.8946L39.3761 21.5525L46.8888 17.2228Z" fill="white"/>
<path d="M32.2688 25.8887L47.4354 35.2776V17.222L32.2688 25.8887Z" fill="white"/>
<path d="M47.4354 16.4998V17.222M47.4354 17.222V35.2776L32.2688 25.8887L47.4354 17.222ZM47.8843 37.2734C48.0563 37.2734 48.2284 37.2289 48.3824 37.1398C48.6903 36.9619 48.8799 36.6334 48.8799 36.2778V15.5C48.8799 15.1445 48.6903 14.8159 48.3824 14.6381C48.0746 14.4602 47.6953 14.46 47.3871 14.6375L38.3802 19.8285L29.3857 25.0343C29.078 25.2124 28.8886 25.541 28.8888 25.8965C28.889 26.252 29.0788 26.5805 29.3866 26.7582L47.3871 37.1405C47.5411 37.229 47.7128 37.2734 47.8843 37.2734ZM46.8888 17.2228V34.5549L31.874 25.8946L39.3761 21.5525L46.8888 17.2228Z" stroke="white" stroke-width="1.44444"/>
<path d="M66.0251 35.8889V12.5981H78.966V15.1749H68.6161V22.948H76.375V25.539H68.6161V33.2979H78.966V35.8889H66.0251ZM81.5355 35.8889V30.7068H84.1265V35.8889H81.5355ZM97.0674 35.8889V30.7068H99.6585V35.8889H97.0674ZM84.1265 30.7068V28.1301H86.7175V30.7068H84.1265ZM94.4764 30.7068V28.1301H97.0674V30.7068H94.4764ZM86.7175 28.1301V25.539H89.2943V28.1301H86.7175ZM91.8854 28.1301V25.539H94.4764V28.1301H91.8854ZM89.2943 25.539V22.948H91.8854V25.539H89.2943ZM86.7175 22.948V20.357H89.2943V22.948H86.7175ZM91.8854 22.948V20.357H94.4764V22.948H91.8854ZM84.1265 20.357V17.7659H86.7175V20.357H84.1265ZM94.4764 20.357V17.7659H97.0674V20.357H94.4764ZM81.5355 17.7659V12.5981H84.1265V17.7659H81.5355ZM97.0674 17.7659V12.5981H99.6585V17.7659H97.0674ZM115.169 22.948V15.1749H117.76V22.948H115.169ZM102.228 35.8889V12.5981H115.169V15.1749H104.819V22.948H115.169V25.539H104.819V35.8889H102.228ZM117.738 35.8889V30.7068H120.329V35.8889H117.738ZM133.27 35.8889V30.7068H135.861V35.8889H133.27ZM120.329 30.7068V22.948H122.92V28.1301H130.679V22.948H133.27V30.7068H120.329ZM122.92 22.948V17.7659H125.497V22.948H122.92ZM128.088 22.948V17.7659H130.679V22.948H128.088ZM125.497 17.7659V12.5981H128.088V17.7659H125.497ZM146.19 28.1301V25.539H148.781V28.1301H146.19ZM143.599 25.539V20.357H146.19V25.539H143.599ZM138.431 35.8889V12.5981H141.022V15.1749H143.599V20.357H141.022V35.8889H138.431ZM151.372 35.8889V33.2979H148.781V28.1301H151.372V12.5981H153.963V35.8889H151.372ZM169.468 33.2979V30.7068H172.059V33.2979H169.468ZM172.059 30.7068V17.7659H174.65V30.7068H172.059ZM169.468 17.7659V15.1749H172.059V17.7659H169.468ZM159.118 35.8889V12.5981H169.468V15.1749H161.709V33.2979H169.468V35.8889H159.118Z" fill="white"/>
</svg>
