<svg width="207" height="52" viewBox="0 0 207 52" fill="none" xmlns="http://www.w3.org/2000/svg">
<rect x="1.44444" y="1.44444" width="203.324" height="48.8889" rx="24.4444" stroke="#000279" stroke-width="2.88889"/>
<path d="M29.8842 37.2734C29.7122 37.2734 29.5402 37.2289 29.3861 37.1398C29.0783 36.9619 28.8887 36.6334 28.8887 36.2778V15.5C28.8887 15.1445 29.0783 14.8159 29.3861 14.6381C29.694 14.4602 30.0732 14.46 30.3814 14.6375L39.3884 19.8285L48.3829 25.0343C48.6906 25.2124 48.88 25.541 48.8798 25.8965C48.8795 26.252 48.6897 26.5805 48.3819 26.7582L30.3814 37.1405C30.2274 37.229 30.0557 37.2734 29.8842 37.2734ZM30.8798 17.2228V34.5549L45.8946 25.8946L38.3924 21.5525L30.8798 17.2228Z" fill="#000279"/>
<path d="M45.4998 25.8887L30.3331 35.2776V17.222L45.4998 25.8887Z" fill="#000279"/>
<path d="M30.3331 16.4998V17.222M30.3331 17.222V35.2776L45.4998 25.8887L30.3331 17.222ZM29.8842 37.2734C29.7122 37.2734 29.5402 37.2289 29.3861 37.1398C29.0783 36.9619 28.8887 36.6334 28.8887 36.2778V15.5C28.8887 15.1445 29.0783 14.8159 29.3861 14.6381C29.694 14.4602 30.0732 14.46 30.3814 14.6375L39.3884 19.8285L48.3829 25.0343C48.6906 25.2124 48.88 25.541 48.8798 25.8965C48.8795 26.252 48.6897 26.5805 48.3819 26.7582L30.3814 37.1405C30.2274 37.229 30.0557 37.2734 29.8842 37.2734ZM30.8798 17.2228V34.5549L45.8946 25.8946L38.3924 21.5525L30.8798 17.2228Z" stroke="#000279" stroke-width="1.44444"/>
<path d="M66.0251 35.8889V12.5981H78.966V15.1749H68.6161V22.948H76.375V25.539H68.6161V33.2979H78.966V35.8889H66.0251ZM81.5355 35.8889V30.7068H84.1265V35.8889H81.5355ZM97.0674 35.8889V30.7068H99.6585V35.8889H97.0674ZM84.1265 30.7068V28.1301H86.7175V30.7068H84.1265ZM94.4764 30.7068V28.1301H97.0674V30.7068H94.4764ZM86.7175 28.1301V25.539H89.2943V28.1301H86.7175ZM91.8854 28.1301V25.539H94.4764V28.1301H91.8854ZM89.2943 25.539V22.948H91.8854V25.539H89.2943ZM86.7175 22.948V20.357H89.2943V22.948H86.7175ZM91.8854 22.948V20.357H94.4764V22.948H91.8854ZM84.1265 20.357V17.7659H86.7175V20.357H84.1265ZM94.4764 20.357V17.7659H97.0674V20.357H94.4764ZM81.5355 17.7659V12.5981H84.1265V17.7659H81.5355ZM97.0674 17.7659V12.5981H99.6585V17.7659H97.0674ZM115.169 22.948V15.1749H117.76V22.948H115.169ZM102.228 35.8889V12.5981H115.169V15.1749H104.819V22.948H115.169V25.539H104.819V35.8889H102.228ZM117.738 35.8889V30.7068H120.329V35.8889H117.738ZM133.27 35.8889V30.7068H135.861V35.8889H133.27ZM120.329 30.7068V22.948H122.92V28.1301H130.679V22.948H133.27V30.7068H120.329ZM122.92 22.948V17.7659H125.497V22.948H122.92ZM128.088 22.948V17.7659H130.679V22.948H128.088ZM125.497 17.7659V12.5981H128.088V17.7659H125.497ZM146.19 28.1301V25.539H148.781V28.1301H146.19ZM143.599 25.539V20.357H146.19V25.539H143.599ZM138.431 35.8889V12.5981H141.022V15.1749H143.599V20.357H141.022V35.8889H138.431ZM151.372 35.8889V33.2979H148.781V28.1301H151.372V12.5981H153.963V35.8889H151.372ZM169.468 33.2979V30.7068H172.059V33.2979H169.468ZM172.059 30.7068V17.7659H174.65V30.7068H172.059ZM169.468 17.7659V15.1749H172.059V17.7659H169.468ZM159.118 35.8889V12.5981H169.468V15.1749H161.709V33.2979H169.468V35.8889H159.118Z" fill="#000279"/>
</svg>
