<svg width="207" height="52" viewBox="0 0 207 52" fill="none" xmlns="http://www.w3.org/2000/svg">
<rect x="1.44444" y="1.44444" width="203.324" height="48.8889" rx="24.4444" stroke="#000279" stroke-width="2.88889"/>
<path d="M31.5895 35.8889V12.5981H44.5305V15.1749H34.1806V22.948H41.9394V25.539H34.1806V33.2979H44.5305V35.8889H31.5895ZM47.0999 35.8889V30.7068H49.691V35.8889H47.0999ZM62.6319 35.8889V30.7068H65.2229V35.8889H62.6319ZM49.691 30.7068V28.1301H52.282V30.7068H49.691ZM60.0409 30.7068V28.1301H62.6319V30.7068H60.0409ZM52.282 28.1301V25.539H54.8588V28.1301H52.282ZM57.4498 28.1301V25.539H60.0409V28.1301H57.4498ZM54.8588 25.539V22.948H57.4498V25.539H54.8588ZM52.282 22.948V20.357H54.8588V22.948H52.282ZM57.4498 22.948V20.357H60.0409V22.948H57.4498ZM49.691 20.357V17.7659H52.282V20.357H49.691ZM60.0409 20.357V17.7659H62.6319V20.357H60.0409ZM47.0999 17.7659V12.5981H49.691V17.7659H47.0999ZM62.6319 17.7659V12.5981H65.2229V17.7659H62.6319ZM80.7333 22.948V15.1749H83.3243V22.948H80.7333ZM67.7924 35.8889V12.5981H80.7333V15.1749H70.3834V22.948H80.7333V25.539H70.3834V35.8889H67.7924ZM83.3028 35.8889V30.7068H85.8938V35.8889H83.3028ZM98.8347 35.8889V30.7068H101.426V35.8889H98.8347ZM85.8938 30.7068V22.948H88.4848V28.1301H96.2437V22.948H98.8347V30.7068H85.8938ZM88.4848 22.948V17.7659H91.0616V22.948H88.4848ZM93.6527 22.948V17.7659H96.2437V22.948H93.6527ZM91.0616 17.7659V12.5981H93.6527V17.7659H91.0616ZM111.754 28.1301V25.539H114.345V28.1301H111.754ZM109.163 25.539V20.357H111.754V25.539H109.163ZM103.995 35.8889V12.5981H106.586V15.1749H109.163V20.357H106.586V35.8889H103.995ZM116.936 35.8889V33.2979H114.345V28.1301H116.936V12.5981H119.527V35.8889H116.936ZM135.032 33.2979V30.7068H137.623V33.2979H135.032ZM137.623 30.7068V17.7659H140.215V30.7068H137.623ZM135.032 17.7659V15.1749H137.623V17.7659H135.032ZM124.683 35.8889V12.5981H135.032V15.1749H127.274V33.2979H135.032V35.8889H124.683Z" fill="#000279"/>
<path d="M176.329 37.2734C176.501 37.2734 176.673 37.2289 176.827 37.1398C177.135 36.9619 177.324 36.6334 177.324 36.2778V15.5C177.324 15.1445 177.135 14.8159 176.827 14.6381C176.519 14.4602 176.14 14.46 175.831 14.6375L166.825 19.8285L157.83 25.0343C157.522 25.2124 157.333 25.541 157.333 25.8965C157.333 26.252 157.523 26.5805 157.831 26.7582L175.831 37.1405C175.985 37.229 176.157 37.2734 176.329 37.2734ZM175.333 17.2228V34.5549L160.318 25.8946L167.82 21.5525L175.333 17.2228Z" fill="#000279"/>
<path d="M160.713 25.8887L175.88 35.2776V17.222L160.713 25.8887Z" fill="#000279"/>
<path d="M175.88 16.4998V17.222M175.88 17.222V35.2776L160.713 25.8887L175.88 17.222ZM176.329 37.2734C176.501 37.2734 176.673 37.2289 176.827 37.1398C177.135 36.9619 177.324 36.6334 177.324 36.2778V15.5C177.324 15.1445 177.135 14.8159 176.827 14.6381C176.519 14.4602 176.14 14.46 175.831 14.6375L166.825 19.8285L157.83 25.0343C157.522 25.2124 157.333 25.541 157.333 25.8965C157.333 26.252 157.523 26.5805 157.831 26.7582L175.831 37.1405C175.985 37.229 176.157 37.2734 176.329 37.2734ZM175.333 17.2228V34.5549L160.318 25.8946L167.82 21.5525L175.333 17.2228Z" stroke="#000279" stroke-width="1.44444"/>
</svg>
