<svg width="225" height="70" viewBox="0 0 225 70" fill="none" xmlns="http://www.w3.org/2000/svg">
<g filter="url(#filter0_d_706_1178)">
<rect x="10.4444" y="1.44444" width="203.324" height="48.8889" rx="24.4444" stroke="white" stroke-width="2.88889" shape-rendering="crispEdges"/>
<path d="M56.8843 37.2734C57.0563 37.2734 57.2284 37.2289 57.3824 37.1398C57.6903 36.9619 57.8799 36.6334 57.8799 36.2778V15.5C57.8799 15.1445 57.6903 14.8159 57.3824 14.6381C57.0746 14.4602 56.6953 14.46 56.3871 14.6375L47.3802 19.8285L38.3857 25.0343C38.078 25.2124 37.8886 25.541 37.8888 25.8965C37.889 26.252 38.0788 26.5805 38.3867 26.7582L56.3871 37.1405C56.5411 37.229 56.7128 37.2734 56.8843 37.2734ZM55.8888 17.2228V34.5549L40.874 25.8946L48.3761 21.5525L55.8888 17.2228Z" fill="white"/>
<path d="M41.2688 25.8887L56.4354 35.2776V17.222L41.2688 25.8887Z" fill="white"/>
<path d="M56.4354 16.4998V17.222M56.4354 17.222V35.2776L41.2688 25.8887L56.4354 17.222ZM56.8843 37.2734C57.0563 37.2734 57.2284 37.2289 57.3824 37.1398C57.6903 36.9619 57.8799 36.6334 57.8799 36.2778V15.5C57.8799 15.1445 57.6903 14.8159 57.3824 14.6381C57.0746 14.4602 56.6953 14.46 56.3871 14.6375L47.3802 19.8285L38.3857 25.0343C38.078 25.2124 37.8886 25.541 37.8888 25.8965C37.889 26.252 38.0788 26.5805 38.3866 26.7582L56.3871 37.1405C56.5411 37.229 56.7128 37.2734 56.8843 37.2734ZM55.8888 17.2228V34.5549L40.874 25.8946L48.3761 21.5525L55.8888 17.2228Z" stroke="white" stroke-width="1.44444"/>
<path d="M75.0251 35.8889V12.5981H87.966V15.1749H77.6161V22.948H85.375V25.539H77.6161V33.2979H87.966V35.8889H75.0251ZM90.5355 35.8889V30.7068H93.1265V35.8889H90.5355ZM106.067 35.8889V30.7068H108.658V35.8889H106.067ZM93.1265 30.7068V28.1301H95.7175V30.7068H93.1265ZM103.476 30.7068V28.1301H106.067V30.7068H103.476ZM95.7175 28.1301V25.539H98.2943V28.1301H95.7175ZM100.885 28.1301V25.539H103.476V28.1301H100.885ZM98.2943 25.539V22.948H100.885V25.539H98.2943ZM95.7175 22.948V20.357H98.2943V22.948H95.7175ZM100.885 22.948V20.357H103.476V22.948H100.885ZM93.1265 20.357V17.7659H95.7175V20.357H93.1265ZM103.476 20.357V17.7659H106.067V20.357H103.476ZM90.5355 17.7659V12.5981H93.1265V17.7659H90.5355ZM106.067 17.7659V12.5981H108.658V17.7659H106.067ZM124.169 22.948V15.1749H126.76V22.948H124.169ZM111.228 35.8889V12.5981H124.169V15.1749H113.819V22.948H124.169V25.539H113.819V35.8889H111.228ZM126.738 35.8889V30.7068H129.329V35.8889H126.738ZM142.27 35.8889V30.7068H144.861V35.8889H142.27ZM129.329 30.7068V22.948H131.92V28.1301H139.679V22.948H142.27V30.7068H129.329ZM131.92 22.948V17.7659H134.497V22.948H131.92ZM137.088 22.948V17.7659H139.679V22.948H137.088ZM134.497 17.7659V12.5981H137.088V17.7659H134.497ZM155.19 28.1301V25.539H157.781V28.1301H155.19ZM152.599 25.539V20.357H155.19V25.539H152.599ZM147.431 35.8889V12.5981H150.022V15.1749H152.599V20.357H150.022V35.8889H147.431ZM160.372 35.8889V33.2979H157.781V28.1301H160.372V12.5981H162.963V35.8889H160.372ZM178.468 33.2979V30.7068H181.059V33.2979H178.468ZM181.059 30.7068V17.7659H183.65V30.7068H181.059ZM178.468 17.7659V15.1749H181.059V17.7659H178.468ZM168.118 35.8889V12.5981H178.468V15.1749H170.709V33.2979H178.468V35.8889H168.118Z" fill="white"/>
</g>
<defs>
<filter id="filter0_d_706_1178" x="0.2" y="0" width="223.813" height="69.3778" filterUnits="userSpaceOnUse" color-interpolation-filters="sRGB">
<feFlood flood-opacity="0" result="BackgroundImageFix"/>
<feColorMatrix in="SourceAlpha" type="matrix" values="0 0 0 0 0 0 0 0 0 0 0 0 0 0 0 0 0 0 127 0" result="hardAlpha"/>
<feOffset dy="8.8"/>
<feGaussianBlur stdDeviation="4.4"/>
<feComposite in2="hardAlpha" operator="out"/>
<feColorMatrix type="matrix" values="0 0 0 0 0 0 0 0 0 0 0 0 0 0 0 0 0 0 0.25 0"/>
<feBlend mode="normal" in2="BackgroundImageFix" result="effect1_dropShadow_706_1178"/>
<feBlend mode="normal" in="SourceGraphic" in2="effect1_dropShadow_706_1178" result="shape"/>
</filter>
</defs>
</svg>
