<svg width="208" height="52" viewBox="0 0 208 52" fill="none" xmlns="http://www.w3.org/2000/svg">
<rect x="2.36632" y="1.44444" width="203.324" height="48.8889" rx="24.4444" stroke="white" stroke-width="2.88889"/>
<path d="M32.5114 35.8887V12.5978H45.4523V15.1746H35.1024V22.9477H42.8613V25.5388H35.1024V33.2976H45.4523V35.8887H32.5114ZM48.0218 35.8887V30.7066H50.6128V35.8887H48.0218ZM63.5538 35.8887V30.7066H66.1448V35.8887H63.5538ZM50.6128 30.7066V28.1298H53.2039V30.7066H50.6128ZM60.9627 30.7066V28.1298H63.5538V30.7066H60.9627ZM53.2039 28.1298V25.5388H55.7807V28.1298H53.2039ZM58.3717 28.1298V25.5388H60.9627V28.1298H58.3717ZM55.7807 25.5388V22.9477H58.3717V25.5388H55.7807ZM53.2039 22.9477V20.3567H55.7807V22.9477H53.2039ZM58.3717 22.9477V20.3567H60.9627V22.9477H58.3717ZM50.6128 20.3567V17.7657H53.2039V20.3567H50.6128ZM60.9627 20.3567V17.7657H63.5538V20.3567H60.9627ZM48.0218 17.7657V12.5978H50.6128V17.7657H48.0218ZM63.5538 17.7657V12.5978H66.1448V17.7657H63.5538ZM81.6552 22.9477V15.1746H84.2462V22.9477H81.6552ZM68.7142 35.8887V12.5978H81.6552V15.1746H71.3053V22.9477H81.6552V25.5388H71.3053V35.8887H68.7142ZM84.2246 35.8887V30.7066H86.8157V35.8887H84.2246ZM99.7566 35.8887V30.7066H102.348V35.8887H99.7566ZM86.8157 30.7066V22.9477H89.4067V28.1298H97.1656V22.9477H99.7566V30.7066H86.8157ZM89.4067 22.9477V17.7657H91.9835V22.9477H89.4067ZM94.5745 22.9477V17.7657H97.1656V22.9477H94.5745ZM91.9835 17.7657V12.5978H94.5745V17.7657H91.9835ZM112.676 28.1298V25.5388H115.267V28.1298H112.676ZM110.085 25.5388V20.3567H112.676V25.5388H110.085ZM104.917 35.8887V12.5978H107.508V15.1746H110.085V20.3567H107.508V35.8887H104.917ZM117.858 35.8887V33.2976H115.267V28.1298H117.858V12.5978H120.449V35.8887H117.858ZM135.954 33.2976V30.7066H138.545V33.2976H135.954ZM138.545 30.7066V17.7657H141.136V30.7066H138.545ZM135.954 17.7657V15.1746H138.545V17.7657H135.954ZM125.604 35.8887V12.5978H135.954V15.1746H128.195V33.2976H135.954V35.8887H125.604Z" fill="white"/>
<path d="M159.251 37.2733C159.079 37.2733 158.907 37.2287 158.753 37.1397C158.445 36.9618 158.255 36.6332 158.255 36.2777V15.4999C158.255 15.1444 158.445 14.8158 158.753 14.6379C159.061 14.4601 159.44 14.4599 159.748 14.6374L168.755 19.8284L177.75 25.0342C178.057 25.2123 178.247 25.5409 178.246 25.8964C178.246 26.2519 178.056 26.5804 177.749 26.758L159.748 37.1403C159.594 37.2289 159.422 37.2733 159.251 37.2733ZM160.246 17.2227V34.5547L175.261 25.8945L167.759 21.5524L160.246 17.2227Z" fill="white"/>
<path d="M174.866 25.8886L159.7 35.2775V17.2219L174.866 25.8886Z" fill="white"/>
<path d="M159.7 16.4997V17.2219M159.7 17.2219V35.2775L174.866 25.8886L159.7 17.2219ZM159.251 37.2733C159.079 37.2733 158.907 37.2287 158.753 37.1397C158.445 36.9618 158.255 36.6332 158.255 36.2777V15.4999C158.255 15.1444 158.445 14.8158 158.753 14.6379C159.061 14.4601 159.44 14.4599 159.748 14.6374L168.755 19.8284L177.75 25.0342C178.057 25.2123 178.247 25.5409 178.246 25.8964C178.246 26.2519 178.056 26.5804 177.749 26.758L159.748 37.1403C159.594 37.2289 159.422 37.2733 159.251 37.2733ZM160.246 17.2227V34.5547L175.261 25.8945L167.759 21.5524L160.246 17.2227Z" stroke="white" stroke-width="1.44444"/>
</svg>
