<svg width="225" height="70" viewBox="0 0 225 70" fill="none" xmlns="http://www.w3.org/2000/svg">
<g filter="url(#filter0_d_706_1171)">
<rect x="10.4444" y="1.44444" width="203.324" height="48.8889" rx="24.4444" stroke="white" stroke-width="2.88889" shape-rendering="crispEdges"/>
<path d="M40.5895 35.8889V12.5981H53.5305V15.1749H43.1806V22.948H50.9394V25.539H43.1806V33.2979H53.5305V35.8889H40.5895ZM56.0999 35.8889V30.7068H58.691V35.8889H56.0999ZM71.6319 35.8889V30.7068H74.2229V35.8889H71.6319ZM58.691 30.7068V28.1301H61.282V30.7068H58.691ZM69.0409 30.7068V28.1301H71.6319V30.7068H69.0409ZM61.282 28.1301V25.539H63.8588V28.1301H61.282ZM66.4498 28.1301V25.539H69.0409V28.1301H66.4498ZM63.8588 25.539V22.948H66.4498V25.539H63.8588ZM61.282 22.948V20.357H63.8588V22.948H61.282ZM66.4498 22.948V20.357H69.0409V22.948H66.4498ZM58.691 20.357V17.7659H61.282V20.357H58.691ZM69.0409 20.357V17.7659H71.6319V20.357H69.0409ZM56.0999 17.7659V12.5981H58.691V17.7659H56.0999ZM71.6319 17.7659V12.5981H74.2229V17.7659H71.6319ZM89.7333 22.948V15.1749H92.3243V22.948H89.7333ZM76.7924 35.8889V12.5981H89.7333V15.1749H79.3834V22.948H89.7333V25.539H79.3834V35.8889H76.7924ZM92.3028 35.8889V30.7068H94.8938V35.8889H92.3028ZM107.835 35.8889V30.7068H110.426V35.8889H107.835ZM94.8938 30.7068V22.948H97.4848V28.1301H105.244V22.948H107.835V30.7068H94.8938ZM97.4848 22.948V17.7659H100.062V22.948H97.4848ZM102.653 22.948V17.7659H105.244V22.948H102.653ZM100.062 17.7659V12.5981H102.653V17.7659H100.062ZM120.754 28.1301V25.539H123.345V28.1301H120.754ZM118.163 25.539V20.357H120.754V25.539H118.163ZM112.995 35.8889V12.5981H115.586V15.1749H118.163V20.357H115.586V35.8889H112.995ZM125.936 35.8889V33.2979H123.345V28.1301H125.936V12.5981H128.527V35.8889H125.936ZM144.032 33.2979V30.7068H146.623V33.2979H144.032ZM146.623 30.7068V17.7659H149.215V30.7068H146.623ZM144.032 17.7659V15.1749H146.623V17.7659H144.032ZM133.683 35.8889V12.5981H144.032V15.1749H136.274V33.2979H144.032V35.8889H133.683Z" fill="white"/>
<path d="M167.329 37.2734C167.157 37.2734 166.985 37.2289 166.831 37.1398C166.523 36.9619 166.333 36.6334 166.333 36.2778V15.5C166.333 15.1445 166.523 14.8159 166.831 14.6381C167.139 14.4602 167.518 14.46 167.826 14.6375L176.833 19.8285L185.828 25.0343C186.135 25.2124 186.325 25.541 186.325 25.8965C186.324 26.252 186.135 26.5805 185.827 26.7582L167.826 37.1405C167.672 37.229 167.501 37.2734 167.329 37.2734ZM168.325 17.2228V34.5549L183.339 25.8946L175.837 21.5525L168.325 17.2228Z" fill="white"/>
<path d="M182.945 25.8887L167.778 35.2776V17.222L182.945 25.8887Z" fill="white"/>
<path d="M167.778 16.4998V17.222M167.778 17.222V35.2776L182.945 25.8887L167.778 17.222ZM167.329 37.2734C167.157 37.2734 166.985 37.2289 166.831 37.1398C166.523 36.9619 166.333 36.6334 166.333 36.2778V15.5C166.333 15.1445 166.523 14.8159 166.831 14.6381C167.139 14.4602 167.518 14.46 167.826 14.6375L176.833 19.8285L185.828 25.0343C186.135 25.2124 186.325 25.541 186.325 25.8965C186.324 26.252 186.135 26.5805 185.827 26.7582L167.826 37.1405C167.672 37.229 167.501 37.2734 167.329 37.2734ZM168.325 17.2228V34.5549L183.339 25.8946L175.837 21.5525L168.325 17.2228Z" stroke="white" stroke-width="1.44444"/>
</g>
<defs>
<filter id="filter0_d_706_1171" x="0.2" y="0" width="223.813" height="69.3778" filterUnits="userSpaceOnUse" color-interpolation-filters="sRGB">
<feFlood flood-opacity="0" result="BackgroundImageFix"/>
<feColorMatrix in="SourceAlpha" type="matrix" values="0 0 0 0 0 0 0 0 0 0 0 0 0 0 0 0 0 0 127 0" result="hardAlpha"/>
<feOffset dy="8.8"/>
<feGaussianBlur stdDeviation="4.4"/>
<feComposite in2="hardAlpha" operator="out"/>
<feColorMatrix type="matrix" values="0 0 0 0 0 0 0 0 0 0 0 0 0 0 0 0 0 0 0.25 0"/>
<feBlend mode="normal" in2="BackgroundImageFix" result="effect1_dropShadow_706_1171"/>
<feBlend mode="normal" in="SourceGraphic" in2="effect1_dropShadow_706_1171" result="shape"/>
</filter>
</defs>
</svg>
