<svg width="293" height="86" viewBox="0 0 293 86" fill="none" xmlns="http://www.w3.org/2000/svg">
<g filter="url(#filter0_i_855_439)">
<mask id="mask0_855_439" style="mask-type:alpha" maskUnits="userSpaceOnUse" x="0" y="0" width="293" height="86">
<rect width="293" height="85.6923" rx="42.8462" fill="#D9D9D9"/>
</mask>
<g mask="url(#mask0_855_439)">
<g filter="url(#filter1_f_855_439)">
<rect x="-38.8223" y="-6.427" width="370.645" height="98.5462" rx="49.2731" fill="url(#paint0_linear_855_439)"/>
</g>
</g>
</g>
<rect x="22.1973" y="5.99841" width="248.606" height="42.8462" rx="21.4231" fill="url(#paint1_linear_855_439)"/>
<rect opacity="0.85" x="1.17533" y="1.17533" width="290.649" height="83.3417" rx="41.6708" stroke="#2FBC22" stroke-width="2.35066"/>
<path d="M101.595 52.36V49.24H111.835V52.36H101.595ZM108.035 29.8L101.155 58H97.5547L104.435 29.8H108.035ZM108.115 29.8L114.995 58H111.435L104.515 29.8H108.115ZM124.363 32.96V29.8H128.443V32.96H124.363ZM124.363 47.16V44H128.443V47.16H124.363ZM132.683 39.68V37.28H136.323V39.68H132.683ZM136.323 37.28H132.683C132.683 35.8933 132.296 34.8267 131.523 34.08C130.776 33.3333 129.736 32.96 128.403 32.96V29.8C129.976 29.8 131.35 30.12 132.523 30.76C133.723 31.3733 134.656 32.2533 135.323 33.4C135.99 34.52 136.323 35.8133 136.323 37.28ZM136.323 39.64C136.323 41.1333 135.99 42.44 135.323 43.56C134.656 44.68 133.723 45.56 132.523 46.2C131.35 46.84 129.976 47.16 128.403 47.16V44C129.736 44 130.776 43.6133 131.523 42.84C132.296 42.0667 132.683 41 132.683 39.64H136.323ZM122.003 58V29.8H125.643V58H122.003ZM145.893 32.96V29.8H149.973V32.96H145.893ZM145.893 47.16V44H149.973V47.16H145.893ZM154.213 39.68V37.28H157.853V39.68H154.213ZM157.853 37.28H154.213C154.213 35.8933 153.826 34.8267 153.053 34.08C152.306 33.3333 151.266 32.96 149.933 32.96V29.8C151.506 29.8 152.879 30.12 154.053 30.76C155.253 31.3733 156.186 32.2533 156.853 33.4C157.519 34.52 157.853 35.8133 157.853 37.28ZM157.853 39.64C157.853 41.1333 157.519 42.44 156.853 43.56C156.186 44.68 155.253 45.56 154.053 46.2C152.879 46.84 151.506 47.16 149.933 47.16V44C151.266 44 152.306 43.6133 153.053 42.84C153.826 42.0667 154.213 41 154.213 39.64H157.853ZM143.533 58V29.8H147.173V58H143.533ZM167.503 58V54.84H177.783V58H167.503ZM165.063 58V29.8H168.703V58H165.063ZM187.728 48.28L194.008 29.8H197.448L191.168 48.28H187.728ZM187.728 58V48.28H191.168V58H187.728ZM187.728 48.28L181.408 29.8H185.168L191.168 48.28H187.728Z" fill="white"/>
<defs>
<filter id="filter0_i_855_439" x="0" y="-15.6711" width="293" height="101.363" filterUnits="userSpaceOnUse" color-interpolation-filters="sRGB">
<feFlood flood-opacity="0" result="BackgroundImageFix"/>
<feBlend mode="normal" in="SourceGraphic" in2="BackgroundImageFix" result="shape"/>
<feColorMatrix in="SourceAlpha" type="matrix" values="0 0 0 0 0 0 0 0 0 0 0 0 0 0 0 0 0 0 127 0" result="hardAlpha"/>
<feOffset dy="-15.6711"/>
<feGaussianBlur stdDeviation="7.83554"/>
<feComposite in2="hardAlpha" operator="arithmetic" k2="-1" k3="1"/>
<feColorMatrix type="matrix" values="0 0 0 0 0.360026 0 0 0 0 0.886813 0 0 0 0 0.314218 0 0 0 1 0"/>
<feBlend mode="normal" in2="shape" result="effect1_innerShadow_855_439"/>
</filter>
<filter id="filter1_f_855_439" x="-58.4111" y="-26.0159" width="409.823" height="137.724" filterUnits="userSpaceOnUse" color-interpolation-filters="sRGB">
<feFlood flood-opacity="0" result="BackgroundImageFix"/>
<feBlend mode="normal" in="SourceGraphic" in2="BackgroundImageFix" result="shape"/>
<feGaussianBlur stdDeviation="9.79443" result="effect1_foregroundBlur_855_439"/>
</filter>
<linearGradient id="paint0_linear_855_439" x1="146.5" y1="-6.427" x2="147" y2="50" gradientUnits="userSpaceOnUse">
<stop stop-color="#28BB00"/>
<stop offset="0.514423" stop-color="#00A400"/>
<stop offset="0.975962" stop-color="#26BE48"/>
</linearGradient>
<linearGradient id="paint1_linear_855_439" x1="146.927" y1="5.99841" x2="147" y2="39.5" gradientUnits="userSpaceOnUse">
<stop stop-color="white" stop-opacity="0.6"/>
<stop offset="0.561786" stop-color="white" stop-opacity="0.25"/>
<stop offset="1" stop-color="white" stop-opacity="0"/>
</linearGradient>
</defs>
</svg>
